<?xml version="1.0" encoding="utf-8" standalone="no"?>
<!DOCTYPE svg PUBLIC "-//W3C//DTD SVG 1.1//EN"
  "http://www.w3.org/Graphics/SVG/1.1/DTD/svg11.dtd">
<!-- Created with matplotlib (http://matplotlib.org/) -->
<svg height="252pt" version="1.1" viewBox="0 0 374 252" width="374pt" xmlns="http://www.w3.org/2000/svg" xmlns:xlink="http://www.w3.org/1999/xlink">
 <defs>
  <style type="text/css">
*{stroke-linecap:butt;stroke-linejoin:round;}
  </style>
 </defs>
 <g id="figure_1">
  <g id="patch_1">
   <path d="M 0 252.018125 
L 374.442187 252.018125 
L 374.442187 0 
L 0 0 
z
" style="fill:none;"/>
  </g>
  <g id="axes_1">
   <g id="patch_2">
    <path d="M 28.942188 228.14 
L 363.742188 228.14 
L 363.742188 10.7 
L 28.942188 10.7 
z
" style="fill:#ffffff;"/>
   </g>
   <g id="PolyCollection_1">
    <defs>
     <path d="M 47.159226 -197.352443 
L 47.159226 -123.929104 
L 50.173024 -123.976861 
L 53.186821 -124.119887 
L 56.200618 -124.357453 
L 59.214415 -124.688345 
L 62.228212 -125.110872 
L 65.24201 -125.622869 
L 68.255807 -126.221707 
L 71.269604 -126.904305 
L 74.283401 -127.667138 
L 77.297198 -128.506253 
L 80.310996 -129.417284 
L 83.324793 -130.395467 
L 86.33859 -131.435662 
L 89.352387 -132.532369 
L 92.366184 -133.679751 
L 95.379982 -134.871657 
L 98.393779 -136.101646 
L 101.407576 -137.363012 
L 104.421373 -138.648807 
L 107.43517 -139.951874 
L 110.448968 -141.264871 
L 113.462765 -142.580301 
L 116.476562 -143.890543 
L 119.490359 -145.187879 
L 122.504156 -146.464529 
L 125.517953 -147.712679 
L 128.531751 -148.924515 
L 131.545548 -150.092253 
L 134.559345 -151.20817 
L 137.573142 -152.264639 
L 140.586939 -153.254159 
L 143.600737 -154.169384 
L 146.614534 -155.003158 
L 149.628331 -155.748544 
L 152.642128 -156.398853 
L 155.655925 -156.947673 
L 158.669723 -157.388901 
L 161.68352 -157.716765 
L 164.697317 -157.925856 
L 167.711114 -158.01115 
L 170.724911 -157.968033 
L 173.738709 -157.792326 
L 176.752506 -157.480303 
L 179.766303 -157.028714 
L 182.7801 -156.434802 
L 185.793897 -155.696321 
L 188.807695 -154.811551 
L 191.821492 -153.779312 
L 194.835289 -152.598975 
L 197.849086 -151.270471 
L 200.862883 -149.794302 
L 203.87668 -148.171545 
L 206.890478 -146.403855 
L 209.904275 -144.49347 
L 212.918072 -142.443211 
L 215.931869 -140.256474 
L 218.945666 -137.937236 
L 221.959464 -135.490041 
L 224.973261 -132.919993 
L 227.987058 -130.232752 
L 231.000855 -127.434512 
L 234.014652 -124.531996 
L 237.02845 -121.532435 
L 240.042247 -118.44355 
L 243.056044 -115.273534 
L 246.069841 -112.031029 
L 249.083638 -108.725104 
L 252.097436 -105.365229 
L 255.111233 -101.961246 
L 258.12503 -98.523345 
L 261.138827 -95.06203 
L 264.152624 -91.588091 
L 267.166422 -88.11257 
L 270.180219 -84.646726 
L 273.194016 -81.202004 
L 276.207813 -77.789995 
L 279.22161 -74.422401 
L 282.235407 -71.110998 
L 285.249205 -67.867598 
L 288.263002 -64.704009 
L 291.276799 -61.631995 
L 294.290596 -58.663242 
L 297.304393 -55.80931 
L 300.318191 -53.081601 
L 303.331988 -50.491315 
L 306.345785 -48.049412 
L 309.359582 -45.766572 
L 312.373379 -43.65316 
L 315.387177 -41.719182 
L 318.400974 -39.974252 
L 321.414771 -38.427554 
L 324.428568 -37.087809 
L 327.442365 -35.963236 
L 330.456163 -35.061523 
L 333.46996 -34.389791 
L 336.483757 -33.954569 
L 339.497554 -33.761761 
L 342.511351 -33.816619 
L 345.525149 -34.123719 
L 345.525149 -107.547058 
L 345.525149 -107.547058 
L 342.511351 -107.239958 
L 339.497554 -107.1851 
L 336.483757 -107.377908 
L 333.46996 -107.81313 
L 330.456163 -108.484861 
L 327.442365 -109.386575 
L 324.428568 -110.511148 
L 321.414771 -111.850893 
L 318.400974 -113.397591 
L 315.387177 -115.142521 
L 312.373379 -117.076499 
L 309.359582 -119.189911 
L 306.345785 -121.472751 
L 303.331988 -123.914654 
L 300.318191 -126.50494 
L 297.304393 -129.232649 
L 294.290596 -132.08658 
L 291.276799 -135.055334 
L 288.263002 -138.127348 
L 285.249205 -141.290937 
L 282.235407 -144.534337 
L 279.22161 -147.84574 
L 276.207813 -151.213334 
L 273.194016 -154.625343 
L 270.180219 -158.070065 
L 267.166422 -161.535909 
L 264.152624 -165.01143 
L 261.138827 -168.485369 
L 258.12503 -171.946684 
L 255.111233 -175.384585 
L 252.097436 -178.788568 
L 249.083638 -182.148443 
L 246.069841 -185.454368 
L 243.056044 -188.696873 
L 240.042247 -191.866889 
L 237.02845 -194.955774 
L 234.014652 -197.955335 
L 231.000855 -200.857851 
L 227.987058 -203.656091 
L 224.973261 -206.343332 
L 221.959464 -208.91338 
L 218.945666 -211.360575 
L 215.931869 -213.679813 
L 212.918072 -215.86655 
L 209.904275 -217.916809 
L 206.890478 -219.827194 
L 203.87668 -221.594884 
L 200.862883 -223.217641 
L 197.849086 -224.69381 
L 194.835289 -226.022314 
L 191.821492 -227.202651 
L 188.807695 -228.23489 
L 185.793897 -229.11966 
L 182.7801 -229.858141 
L 179.766303 -230.452053 
L 176.752506 -230.903642 
L 173.738709 -231.215665 
L 170.724911 -231.391372 
L 167.711114 -231.434489 
L 164.697317 -231.349195 
L 161.68352 -231.140104 
L 158.669723 -230.81224 
L 155.655925 -230.371012 
L 152.642128 -229.822192 
L 149.628331 -229.171883 
L 146.614534 -228.426497 
L 143.600737 -227.592723 
L 140.586939 -226.677498 
L 137.573142 -225.687978 
L 134.559345 -224.631509 
L 131.545548 -223.515592 
L 128.531751 -222.347854 
L 125.517953 -221.136018 
L 122.504156 -219.887868 
L 119.490359 -218.611218 
L 116.476562 -217.313882 
L 113.462765 -216.00364 
L 110.448968 -214.68821 
L 107.43517 -213.375213 
L 104.421373 -212.072146 
L 101.407576 -210.786351 
L 98.393779 -209.524985 
L 95.379982 -208.294996 
L 92.366184 -207.10309 
L 89.352387 -205.955708 
L 86.33859 -204.859001 
L 83.324793 -203.818806 
L 80.310996 -202.840623 
L 77.297198 -201.929592 
L 74.283401 -201.090477 
L 71.269604 -200.327644 
L 68.255807 -199.645046 
L 65.24201 -199.046208 
L 62.228212 -198.534211 
L 59.214415 -198.111684 
L 56.200618 -197.780792 
L 53.186821 -197.543226 
L 50.173024 -197.4002 
L 47.159226 -197.352443 
z
" id="m5483352370" style="stroke:#e6e6e6;"/>
    </defs>
    <g clip-path="url(#p4f4c1e051a)">
     <use style="fill:#e6e6e6;stroke:#e6e6e6;" x="0" xlink:href="#m5483352370" y="252.018125"/>
    </g>
   </g>
   <g id="PathCollection_1">
    <defs>
     <path d="M 0 3 
C 0.795609 3 1.55874 2.683901 2.12132 2.12132 
C 2.683901 1.55874 3 0.795609 3 0 
C 3 -0.795609 2.683901 -1.55874 2.12132 -2.12132 
C 1.55874 -2.683901 0.795609 -3 0 -3 
C -0.795609 -3 -1.55874 -2.683901 -2.12132 -2.12132 
C -2.683901 -1.55874 -3 -0.795609 -3 0 
C -3 0.795609 -2.683901 1.55874 -2.12132 2.12132 
C -1.55874 2.683901 -0.795609 3 0 3 
z
" id="m6dbdb14196" style="stroke:#1f77b4;"/>
    </defs>
    <g clip-path="url(#p4f4c1e051a)">
     <use style="fill:#1f77b4;stroke:#1f77b4;" x="47.159226" xlink:href="#m6dbdb14196" y="99.813656"/>
     <use style="fill:#1f77b4;stroke:#1f77b4;" x="106.832411" xlink:href="#m6dbdb14196" y="53.447962"/>
     <use style="fill:#1f77b4;stroke:#1f77b4;" x="166.505595" xlink:href="#m6dbdb14196" y="42.418826"/>
     <use style="fill:#1f77b4;stroke:#1f77b4;" x="226.17878" xlink:href="#m6dbdb14196" y="106.727288"/>
     <use style="fill:#1f77b4;stroke:#1f77b4;" x="285.851964" xlink:href="#m6dbdb14196" y="171.770123"/>
     <use style="fill:#1f77b4;stroke:#1f77b4;" x="345.525149" xlink:href="#m6dbdb14196" y="174.230758"/>
    </g>
   </g>
   <g id="PathCollection_2">
    <defs>
     <path d="M 0 3 
C 0.795609 3 1.55874 2.683901 2.12132 2.12132 
C 2.683901 1.55874 3 0.795609 3 0 
C 3 -0.795609 2.683901 -1.55874 2.12132 -2.12132 
C 1.55874 -2.683901 0.795609 -3 0 -3 
C -0.795609 -3 -1.55874 -2.683901 -2.12132 -2.12132 
C -2.683901 -1.55874 -3 -0.795609 -3 0 
C -3 0.795609 -2.683901 1.55874 -2.12132 2.12132 
C -1.55874 2.683901 -0.795609 3 0 3 
z
" id="md5a3a03a85" style="stroke:#ff7f0e;"/>
    </defs>
    <g clip-path="url(#p4f4c1e051a)">
     <use style="fill:#ff7f0e;stroke:#ff7f0e;" x="47.159226" xlink:href="#md5a3a03a85" y="85.087259"/>
     <use style="fill:#ff7f0e;stroke:#ff7f0e;" x="106.832411" xlink:href="#md5a3a03a85" y="90.096971"/>
     <use style="fill:#ff7f0e;stroke:#ff7f0e;" x="166.505595" xlink:href="#md5a3a03a85" y="63.574204"/>
     <use style="fill:#ff7f0e;stroke:#ff7f0e;" x="226.17878" xlink:href="#md5a3a03a85" y="104.027266"/>
     <use style="fill:#ff7f0e;stroke:#ff7f0e;" x="285.851964" xlink:href="#md5a3a03a85" y="185.321157"/>
     <use style="fill:#ff7f0e;stroke:#ff7f0e;" x="345.525149" xlink:href="#md5a3a03a85" y="168.835296"/>
    </g>
   </g>
   <g id="matplotlib.axis_1">
    <g id="xtick_1">
     <g id="line2d_1">
      <defs>
       <path d="M 0 0 
L 0 3.5 
" id="m9357cbae98" style="stroke:#000000;stroke-width:0.8;"/>
      </defs>
      <g>
       <use style="stroke:#000000;stroke-width:0.8;" x="47.159226" xlink:href="#m9357cbae98" y="228.14"/>
      </g>
     </g>
     <g id="text_1">
      <!-- 0 -->
      <defs>
       <path d="M 31.78125 66.40625 
Q 24.171875 66.40625 20.328125 58.90625 
Q 16.5 51.421875 16.5 36.375 
Q 16.5 21.390625 20.328125 13.890625 
Q 24.171875 6.390625 31.78125 6.390625 
Q 39.453125 6.390625 43.28125 13.890625 
Q 47.125 21.390625 47.125 36.375 
Q 47.125 51.421875 43.28125 58.90625 
Q 39.453125 66.40625 31.78125 66.40625 
z
M 31.78125 74.21875 
Q 44.046875 74.21875 50.515625 64.515625 
Q 56.984375 54.828125 56.984375 36.375 
Q 56.984375 17.96875 50.515625 8.265625 
Q 44.046875 -1.421875 31.78125 -1.421875 
Q 19.53125 -1.421875 13.0625 8.265625 
Q 6.59375 17.96875 6.59375 36.375 
Q 6.59375 54.828125 13.0625 64.515625 
Q 19.53125 74.21875 31.78125 74.21875 
z
" id="DejaVuSans-30"/>
      </defs>
      <g transform="translate(43.977976 242.738437)scale(0.1 -0.1)">
       <use xlink:href="#DejaVuSans-30"/>
      </g>
     </g>
    </g>
    <g id="xtick_2">
     <g id="line2d_2">
      <g>
       <use style="stroke:#000000;stroke-width:0.8;" x="106.832411" xlink:href="#m9357cbae98" y="228.14"/>
      </g>
     </g>
     <g id="text_2">
      <!-- 1 -->
      <defs>
       <path d="M 12.40625 8.296875 
L 28.515625 8.296875 
L 28.515625 63.921875 
L 10.984375 60.40625 
L 10.984375 69.390625 
L 28.421875 72.90625 
L 38.28125 72.90625 
L 38.28125 8.296875 
L 54.390625 8.296875 
L 54.390625 0 
L 12.40625 0 
z
" id="DejaVuSans-31"/>
      </defs>
      <g transform="translate(103.651161 242.738437)scale(0.1 -0.1)">
       <use xlink:href="#DejaVuSans-31"/>
      </g>
     </g>
    </g>
    <g id="xtick_3">
     <g id="line2d_3">
      <g>
       <use style="stroke:#000000;stroke-width:0.8;" x="166.505595" xlink:href="#m9357cbae98" y="228.14"/>
      </g>
     </g>
     <g id="text_3">
      <!-- 2 -->
      <defs>
       <path d="M 19.1875 8.296875 
L 53.609375 8.296875 
L 53.609375 0 
L 7.328125 0 
L 7.328125 8.296875 
Q 12.9375 14.109375 22.625 23.890625 
Q 32.328125 33.6875 34.8125 36.53125 
Q 39.546875 41.84375 41.421875 45.53125 
Q 43.3125 49.21875 43.3125 52.78125 
Q 43.3125 58.59375 39.234375 62.25 
Q 35.15625 65.921875 28.609375 65.921875 
Q 23.96875 65.921875 18.8125 64.3125 
Q 13.671875 62.703125 7.8125 59.421875 
L 7.8125 69.390625 
Q 13.765625 71.78125 18.9375 73 
Q 24.125 74.21875 28.421875 74.21875 
Q 39.75 74.21875 46.484375 68.546875 
Q 53.21875 62.890625 53.21875 53.421875 
Q 53.21875 48.921875 51.53125 44.890625 
Q 49.859375 40.875 45.40625 35.40625 
Q 44.1875 33.984375 37.640625 27.21875 
Q 31.109375 20.453125 19.1875 8.296875 
z
" id="DejaVuSans-32"/>
      </defs>
      <g transform="translate(163.324345 242.738437)scale(0.1 -0.1)">
       <use xlink:href="#DejaVuSans-32"/>
      </g>
     </g>
    </g>
    <g id="xtick_4">
     <g id="line2d_4">
      <g>
       <use style="stroke:#000000;stroke-width:0.8;" x="226.17878" xlink:href="#m9357cbae98" y="228.14"/>
      </g>
     </g>
     <g id="text_4">
      <!-- 3 -->
      <defs>
       <path d="M 40.578125 39.3125 
Q 47.65625 37.796875 51.625 33 
Q 55.609375 28.21875 55.609375 21.1875 
Q 55.609375 10.40625 48.1875 4.484375 
Q 40.765625 -1.421875 27.09375 -1.421875 
Q 22.515625 -1.421875 17.65625 -0.515625 
Q 12.796875 0.390625 7.625 2.203125 
L 7.625 11.71875 
Q 11.71875 9.328125 16.59375 8.109375 
Q 21.484375 6.890625 26.8125 6.890625 
Q 36.078125 6.890625 40.9375 10.546875 
Q 45.796875 14.203125 45.796875 21.1875 
Q 45.796875 27.640625 41.28125 31.265625 
Q 36.765625 34.90625 28.71875 34.90625 
L 20.21875 34.90625 
L 20.21875 43.015625 
L 29.109375 43.015625 
Q 36.375 43.015625 40.234375 45.921875 
Q 44.09375 48.828125 44.09375 54.296875 
Q 44.09375 59.90625 40.109375 62.90625 
Q 36.140625 65.921875 28.71875 65.921875 
Q 24.65625 65.921875 20.015625 65.03125 
Q 15.375 64.15625 9.8125 62.3125 
L 9.8125 71.09375 
Q 15.4375 72.65625 20.34375 73.4375 
Q 25.25 74.21875 29.59375 74.21875 
Q 40.828125 74.21875 47.359375 69.109375 
Q 53.90625 64.015625 53.90625 55.328125 
Q 53.90625 49.265625 50.4375 45.09375 
Q 46.96875 40.921875 40.578125 39.3125 
z
" id="DejaVuSans-33"/>
      </defs>
      <g transform="translate(222.99753 242.738437)scale(0.1 -0.1)">
       <use xlink:href="#DejaVuSans-33"/>
      </g>
     </g>
    </g>
    <g id="xtick_5">
     <g id="line2d_5">
      <g>
       <use style="stroke:#000000;stroke-width:0.8;" x="285.851964" xlink:href="#m9357cbae98" y="228.14"/>
      </g>
     </g>
     <g id="text_5">
      <!-- 4 -->
      <defs>
       <path d="M 37.796875 64.3125 
L 12.890625 25.390625 
L 37.796875 25.390625 
z
M 35.203125 72.90625 
L 47.609375 72.90625 
L 47.609375 25.390625 
L 58.015625 25.390625 
L 58.015625 17.1875 
L 47.609375 17.1875 
L 47.609375 0 
L 37.796875 0 
L 37.796875 17.1875 
L 4.890625 17.1875 
L 4.890625 26.703125 
z
" id="DejaVuSans-34"/>
      </defs>
      <g transform="translate(282.670714 242.738437)scale(0.1 -0.1)">
       <use xlink:href="#DejaVuSans-34"/>
      </g>
     </g>
    </g>
    <g id="xtick_6">
     <g id="line2d_6">
      <g>
       <use style="stroke:#000000;stroke-width:0.8;" x="345.525149" xlink:href="#m9357cbae98" y="228.14"/>
      </g>
     </g>
     <g id="text_6">
      <!-- 5 -->
      <defs>
       <path d="M 10.796875 72.90625 
L 49.515625 72.90625 
L 49.515625 64.59375 
L 19.828125 64.59375 
L 19.828125 46.734375 
Q 21.96875 47.46875 24.109375 47.828125 
Q 26.265625 48.1875 28.421875 48.1875 
Q 40.625 48.1875 47.75 41.5 
Q 54.890625 34.8125 54.890625 23.390625 
Q 54.890625 11.625 47.5625 5.09375 
Q 40.234375 -1.421875 26.90625 -1.421875 
Q 22.3125 -1.421875 17.546875 -0.640625 
Q 12.796875 0.140625 7.71875 1.703125 
L 7.71875 11.625 
Q 12.109375 9.234375 16.796875 8.0625 
Q 21.484375 6.890625 26.703125 6.890625 
Q 35.15625 6.890625 40.078125 11.328125 
Q 45.015625 15.765625 45.015625 23.390625 
Q 45.015625 31 40.078125 35.4375 
Q 35.15625 39.890625 26.703125 39.890625 
Q 22.75 39.890625 18.8125 39.015625 
Q 14.890625 38.140625 10.796875 36.28125 
z
" id="DejaVuSans-35"/>
      </defs>
      <g transform="translate(342.343899 242.738437)scale(0.1 -0.1)">
       <use xlink:href="#DejaVuSans-35"/>
      </g>
     </g>
    </g>
   </g>
   <g id="matplotlib.axis_2">
    <g id="ytick_1">
     <g id="line2d_7">
      <defs>
       <path d="M 0 0 
L -3.5 0 
" id="m7087b7c5ec" style="stroke:#000000;stroke-width:0.8;"/>
      </defs>
      <g>
       <use style="stroke:#000000;stroke-width:0.8;" x="28.942188" xlink:href="#m7087b7c5ec" y="203.760013"/>
      </g>
     </g>
     <g id="text_7">
      <!-- −6 -->
      <defs>
       <path d="M 10.59375 35.5 
L 73.1875 35.5 
L 73.1875 27.203125 
L 10.59375 27.203125 
z
" id="DejaVuSans-2212"/>
       <path d="M 33.015625 40.375 
Q 26.375 40.375 22.484375 35.828125 
Q 18.609375 31.296875 18.609375 23.390625 
Q 18.609375 15.53125 22.484375 10.953125 
Q 26.375 6.390625 33.015625 6.390625 
Q 39.65625 6.390625 43.53125 10.953125 
Q 47.40625 15.53125 47.40625 23.390625 
Q 47.40625 31.296875 43.53125 35.828125 
Q 39.65625 40.375 33.015625 40.375 
z
M 52.59375 71.296875 
L 52.59375 62.3125 
Q 48.875 64.0625 45.09375 64.984375 
Q 41.3125 65.921875 37.59375 65.921875 
Q 27.828125 65.921875 22.671875 59.328125 
Q 17.53125 52.734375 16.796875 39.40625 
Q 19.671875 43.65625 24.015625 45.921875 
Q 28.375 48.1875 33.59375 48.1875 
Q 44.578125 48.1875 50.953125 41.515625 
Q 57.328125 34.859375 57.328125 23.390625 
Q 57.328125 12.15625 50.6875 5.359375 
Q 44.046875 -1.421875 33.015625 -1.421875 
Q 20.359375 -1.421875 13.671875 8.265625 
Q 6.984375 17.96875 6.984375 36.375 
Q 6.984375 53.65625 15.1875 63.9375 
Q 23.390625 74.21875 37.203125 74.21875 
Q 40.921875 74.21875 44.703125 73.484375 
Q 48.484375 72.75 52.59375 71.296875 
z
" id="DejaVuSans-36"/>
      </defs>
      <g transform="translate(7.2 207.559232)scale(0.1 -0.1)">
       <use xlink:href="#DejaVuSans-2212"/>
       <use x="83.789062" xlink:href="#DejaVuSans-36"/>
      </g>
     </g>
    </g>
    <g id="ytick_2">
     <g id="line2d_8">
      <g>
       <use style="stroke:#000000;stroke-width:0.8;" x="28.942188" xlink:href="#m7087b7c5ec" y="166.299126"/>
      </g>
     </g>
     <g id="text_8">
      <!-- −4 -->
      <g transform="translate(7.2 170.098345)scale(0.1 -0.1)">
       <use xlink:href="#DejaVuSans-2212"/>
       <use x="83.789062" xlink:href="#DejaVuSans-34"/>
      </g>
     </g>
    </g>
    <g id="ytick_3">
     <g id="line2d_9">
      <g>
       <use style="stroke:#000000;stroke-width:0.8;" x="28.942188" xlink:href="#m7087b7c5ec" y="128.838239"/>
      </g>
     </g>
     <g id="text_9">
      <!-- −2 -->
      <g transform="translate(7.2 132.637457)scale(0.1 -0.1)">
       <use xlink:href="#DejaVuSans-2212"/>
       <use x="83.789062" xlink:href="#DejaVuSans-32"/>
      </g>
     </g>
    </g>
    <g id="ytick_4">
     <g id="line2d_10">
      <g>
       <use style="stroke:#000000;stroke-width:0.8;" x="28.942188" xlink:href="#m7087b7c5ec" y="91.377351"/>
      </g>
     </g>
     <g id="text_10">
      <!-- 0 -->
      <g transform="translate(15.579688 95.17657)scale(0.1 -0.1)">
       <use xlink:href="#DejaVuSans-30"/>
      </g>
     </g>
    </g>
    <g id="ytick_5">
     <g id="line2d_11">
      <g>
       <use style="stroke:#000000;stroke-width:0.8;" x="28.942188" xlink:href="#m7087b7c5ec" y="53.916464"/>
      </g>
     </g>
     <g id="text_11">
      <!-- 2 -->
      <g transform="translate(15.579688 57.715683)scale(0.1 -0.1)">
       <use xlink:href="#DejaVuSans-32"/>
      </g>
     </g>
    </g>
    <g id="ytick_6">
     <g id="line2d_12">
      <g>
       <use style="stroke:#000000;stroke-width:0.8;" x="28.942188" xlink:href="#m7087b7c5ec" y="16.455577"/>
      </g>
     </g>
     <g id="text_12">
      <!-- 4 -->
      <g transform="translate(15.579688 20.254796)scale(0.1 -0.1)">
       <use xlink:href="#DejaVuSans-34"/>
      </g>
     </g>
    </g>
   </g>
   <g id="line2d_13">
    <path clip-path="url(#p4f4c1e051a)" d="M 47.159226 91.377351 
L 50.173024 91.329595 
L 53.186821 91.186569 
L 56.200618 90.949003 
L 59.214415 90.618111 
L 62.228212 90.195584 
L 65.24201 89.683587 
L 68.255807 89.084748 
L 71.269604 88.40215 
L 74.283401 87.639317 
L 77.297198 86.800202 
L 80.310996 85.889171 
L 83.324793 84.910988 
L 86.33859 83.870793 
L 89.352387 82.774087 
L 92.366184 81.626705 
L 95.379982 80.434798 
L 98.393779 79.204809 
L 101.407576 77.943444 
L 104.421373 76.657649 
L 107.43517 75.354581 
L 110.448968 74.041584 
L 113.462765 72.726154 
L 116.476562 71.415913 
L 119.490359 70.118577 
L 122.504156 68.841927 
L 125.517953 67.593776 
L 128.531751 66.38194 
L 131.545548 65.214203 
L 134.559345 64.098286 
L 137.573142 63.041816 
L 140.586939 62.052297 
L 143.600737 61.137072 
L 146.614534 60.303297 
L 149.628331 59.557911 
L 152.642128 58.907603 
L 155.655925 58.358782 
L 158.669723 57.917555 
L 161.68352 57.589691 
L 164.697317 57.3806 
L 167.711114 57.295306 
L 170.724911 57.338422 
L 173.738709 57.514129 
L 176.752506 57.826152 
L 179.766303 58.277742 
L 182.7801 58.871654 
L 185.793897 59.610134 
L 188.807695 60.494904 
L 191.821492 61.527143 
L 194.835289 62.707481 
L 197.849086 64.035984 
L 200.862883 65.512153 
L 203.87668 67.134911 
L 206.890478 68.902601 
L 209.904275 70.812985 
L 212.918072 72.863245 
L 215.931869 75.049981 
L 218.945666 77.369219 
L 221.959464 79.816415 
L 224.973261 82.386462 
L 227.987058 85.073704 
L 231.000855 87.871943 
L 234.014652 90.774459 
L 237.02845 93.77402 
L 240.042247 96.862906 
L 243.056044 100.032922 
L 246.069841 103.275426 
L 249.083638 106.581351 
L 252.097436 109.941227 
L 255.111233 113.34521 
L 258.12503 116.783111 
L 261.138827 120.244426 
L 264.152624 123.718365 
L 267.166422 127.193886 
L 270.180219 130.659729 
L 273.194016 134.104451 
L 276.207813 137.51646 
L 279.22161 140.884054 
L 282.235407 144.195457 
L 285.249205 147.438857 
L 288.263002 150.602447 
L 291.276799 153.67446 
L 294.290596 156.643214 
L 297.304393 159.497146 
L 300.318191 162.224855 
L 303.331988 164.815141 
L 306.345785 167.257044 
L 309.359582 169.539883 
L 312.373379 171.653295 
L 315.387177 173.587274 
L 318.400974 175.332204 
L 321.414771 176.878901 
L 324.428568 178.218646 
L 327.442365 179.343219 
L 330.456163 180.244933 
L 333.46996 180.916664 
L 336.483757 181.351886 
L 339.497554 181.544694 
L 342.511351 181.489836 
L 345.525149 181.182737 
" style="fill:none;stroke:#b2b2b2;stroke-linecap:square;stroke-width:6;"/>
   </g>
   <g id="line2d_14">
    <path clip-path="url(#p4f4c1e051a)" d="M 47.159226 84.186374 
L 50.173024 82.880257 
L 53.186821 81.6241 
L 56.200618 80.417903 
L 59.214415 79.261666 
L 62.228212 78.15539 
L 65.24201 77.099074 
L 68.255807 76.092718 
L 71.269604 75.136322 
L 74.283401 74.229887 
L 77.297198 73.373411 
L 80.310996 72.566896 
L 83.324793 71.810342 
L 86.33859 71.103747 
L 89.352387 70.447113 
L 92.366184 69.840439 
L 95.379982 69.283725 
L 98.393779 68.776972 
L 101.407576 68.320178 
L 104.421373 67.913345 
L 107.43517 67.556472 
L 110.448968 67.24956 
L 113.462765 66.992607 
L 116.476562 66.785615 
L 119.490359 66.628583 
L 122.504156 66.521512 
L 125.517953 66.4644 
L 128.531751 66.457249 
L 131.545548 66.500058 
L 134.559345 66.592827 
L 137.573142 66.735557 
L 140.586939 66.928247 
L 143.600737 67.170897 
L 146.614534 67.463507 
L 149.628331 67.806077 
L 152.642128 68.198608 
L 155.655925 68.641099 
L 158.669723 69.13355 
L 161.68352 69.675962 
L 164.697317 70.268333 
L 167.711114 70.910665 
L 170.724911 71.602957 
L 173.738709 72.34521 
L 176.752506 73.137422 
L 179.766303 73.979595 
L 182.7801 74.871728 
L 185.793897 75.813822 
L 188.807695 76.805875 
L 191.821492 77.847889 
L 194.835289 78.939863 
L 197.849086 80.081797 
L 200.862883 81.273692 
L 203.87668 82.515546 
L 206.890478 83.807361 
L 209.904275 85.149137 
L 212.918072 86.540872 
L 215.931869 87.982568 
L 218.945666 89.474224 
L 221.959464 91.01584 
L 224.973261 92.607416 
L 227.987058 94.248953 
L 231.000855 95.94045 
L 234.014652 97.681907 
L 237.02845 99.473324 
L 240.042247 101.314702 
L 243.056044 103.20604 
L 246.069841 105.147338 
L 249.083638 107.138596 
L 252.097436 109.179815 
L 255.111233 111.270994 
L 258.12503 113.412133 
L 261.138827 115.603232 
L 264.152624 117.844292 
L 267.166422 120.135311 
L 270.180219 122.476291 
L 273.194016 124.867231 
L 276.207813 127.308132 
L 279.22161 129.798993 
L 282.235407 132.339814 
L 285.249205 134.930595 
L 288.263002 137.571336 
L 291.276799 140.262038 
L 294.290596 143.0027 
L 297.304393 145.793322 
L 300.318191 148.633904 
L 303.331988 151.524447 
L 306.345785 154.46495 
L 309.359582 157.455413 
L 312.373379 160.495836 
L 315.387177 163.58622 
L 318.400974 166.726563 
L 321.414771 169.916867 
L 324.428568 173.157132 
L 327.442365 176.447356 
L 330.456163 179.787541 
L 333.46996 183.177686 
L 336.483757 186.617791 
L 339.497554 190.107857 
L 342.511351 193.647882 
L 345.525149 197.237868 
" style="fill:none;stroke:#1f77b4;stroke-linecap:square;stroke-width:1.5;"/>
   </g>
   <g id="line2d_15">
    <path clip-path="url(#p4f4c1e051a)" d="M 47.159226 82.225466 
L 50.173024 81.85497 
L 53.186821 81.513971 
L 56.200618 81.202469 
L 59.214415 80.920464 
L 62.228212 80.667955 
L 65.24201 80.444943 
L 68.255807 80.251427 
L 71.269604 80.087408 
L 74.283401 79.952886 
L 77.297198 79.847861 
L 80.310996 79.772332 
L 83.324793 79.7263 
L 86.33859 79.709765 
L 89.352387 79.722726 
L 92.366184 79.765184 
L 95.379982 79.837139 
L 98.393779 79.938591 
L 101.407576 80.069539 
L 104.421373 80.229984 
L 107.43517 80.419925 
L 110.448968 80.639364 
L 113.462765 80.888299 
L 116.476562 81.16673 
L 119.490359 81.474659 
L 122.504156 81.812084 
L 125.517953 82.179005 
L 128.531751 82.575424 
L 131.545548 83.001339 
L 134.559345 83.456751 
L 137.573142 83.941659 
L 140.586939 84.456064 
L 143.600737 84.999966 
L 146.614534 85.573365 
L 149.628331 86.17626 
L 152.642128 86.808652 
L 155.655925 87.470541 
L 158.669723 88.161926 
L 161.68352 88.882808 
L 164.697317 89.633187 
L 167.711114 90.413063 
L 170.724911 91.222435 
L 173.738709 92.061304 
L 176.752506 92.929669 
L 179.766303 93.827532 
L 182.7801 94.754891 
L 185.793897 95.711746 
L 188.807695 96.698099 
L 191.821492 97.713948 
L 194.835289 98.759293 
L 197.849086 99.834136 
L 200.862883 100.938475 
L 203.87668 102.072311 
L 206.890478 103.235643 
L 209.904275 104.428472 
L 212.918072 105.650798 
L 215.931869 106.902621 
L 218.945666 108.18394 
L 221.959464 109.494756 
L 224.973261 110.835069 
L 227.987058 112.204878 
L 231.000855 113.604184 
L 234.014652 115.032987 
L 237.02845 116.491287 
L 240.042247 117.979083 
L 243.056044 119.496376 
L 246.069841 121.043165 
L 249.083638 122.619451 
L 252.097436 124.225234 
L 255.111233 125.860514 
L 258.12503 127.52529 
L 261.138827 129.219563 
L 264.152624 130.943333 
L 267.166422 132.6966 
L 270.180219 134.479363 
L 273.194016 136.291623 
L 276.207813 138.133379 
L 279.22161 140.004632 
L 282.235407 141.905382 
L 285.249205 143.835629 
L 288.263002 145.795372 
L 291.276799 147.784612 
L 294.290596 149.803349 
L 297.304393 151.851582 
L 300.318191 153.929312 
L 303.331988 156.036539 
L 306.345785 158.173262 
L 309.359582 160.339483 
L 312.373379 162.535199 
L 315.387177 164.760413 
L 318.400974 167.015123 
L 321.414771 169.29933 
L 324.428568 171.613034 
L 327.442365 173.956234 
L 330.456163 176.328931 
L 333.46996 178.731125 
L 336.483757 181.162815 
L 339.497554 183.624002 
L 342.511351 186.114686 
L 345.525149 188.634867 
" style="fill:none;stroke:#ff7f0e;stroke-linecap:square;stroke-width:1.5;"/>
   </g>
   <g id="patch_3">
    <path d="M 28.942188 228.14 
L 28.942188 10.7 
" style="fill:none;stroke:#000000;stroke-linecap:square;stroke-linejoin:miter;stroke-width:0.8;"/>
   </g>
   <g id="patch_4">
    <path d="M 363.742188 228.14 
L 363.742188 10.7 
" style="fill:none;stroke:#000000;stroke-linecap:square;stroke-linejoin:miter;stroke-width:0.8;"/>
   </g>
   <g id="patch_5">
    <path d="M 28.942188 228.14 
L 363.742188 228.14 
" style="fill:none;stroke:#000000;stroke-linecap:square;stroke-linejoin:miter;stroke-width:0.8;"/>
   </g>
   <g id="patch_6">
    <path d="M 28.942188 10.7 
L 363.742188 10.7 
" style="fill:none;stroke:#000000;stroke-linecap:square;stroke-linejoin:miter;stroke-width:0.8;"/>
   </g>
   <g id="legend_1">
    <g id="patch_7">
     <path d="M 302.642188 98.734375 
L 356.742188 98.734375 
Q 358.742188 98.734375 358.742188 96.734375 
L 358.742188 17.7 
Q 358.742188 15.7 356.742188 15.7 
L 302.642188 15.7 
Q 300.642188 15.7 300.642188 17.7 
L 300.642188 96.734375 
Q 300.642188 98.734375 302.642188 98.734375 
z
" style="fill:#ffffff;opacity:0.8;stroke:#cccccc;stroke-linejoin:miter;"/>
    </g>
    <g id="line2d_16">
     <path d="M 304.642188 23.798437 
L 324.642188 23.798437 
" style="fill:none;stroke:#b2b2b2;stroke-linecap:square;stroke-width:6;"/>
    </g>
    <g id="line2d_17"/>
    <g id="text_13">
     <!-- $f(x)$ -->
     <defs>
      <path d="M 47.796875 75.984375 
L 46.390625 68.5 
L 37.796875 68.5 
Q 32.90625 68.5 30.6875 66.578125 
Q 28.46875 64.65625 27.390625 59.515625 
L 26.421875 54.6875 
L 41.21875 54.6875 
L 39.890625 47.703125 
L 25.09375 47.703125 
L 15.828125 0 
L 6.78125 0 
L 16.109375 47.703125 
L 7.515625 47.703125 
L 8.796875 54.6875 
L 17.390625 54.6875 
L 18.109375 58.5 
Q 19.96875 68.171875 24.625 72.078125 
Q 29.296875 75.984375 39.3125 75.984375 
z
" id="DejaVuSans-Oblique-66"/>
      <path d="M 31 75.875 
Q 24.46875 64.65625 21.28125 53.65625 
Q 18.109375 42.671875 18.109375 31.390625 
Q 18.109375 20.125 21.3125 9.0625 
Q 24.515625 -2 31 -13.1875 
L 23.1875 -13.1875 
Q 15.875 -1.703125 12.234375 9.375 
Q 8.59375 20.453125 8.59375 31.390625 
Q 8.59375 42.28125 12.203125 53.3125 
Q 15.828125 64.359375 23.1875 75.875 
z
" id="DejaVuSans-28"/>
      <path d="M 60.015625 54.6875 
L 34.90625 27.875 
L 50.296875 0 
L 39.984375 0 
L 28.421875 21.6875 
L 8.296875 0 
L -2.59375 0 
L 24.3125 28.8125 
L 10.015625 54.6875 
L 20.3125 54.6875 
L 30.8125 34.90625 
L 49.125 54.6875 
z
" id="DejaVuSans-Oblique-78"/>
      <path d="M 8.015625 75.875 
L 15.828125 75.875 
Q 23.140625 64.359375 26.78125 53.3125 
Q 30.421875 42.28125 30.421875 31.390625 
Q 30.421875 20.453125 26.78125 9.375 
Q 23.140625 -1.703125 15.828125 -13.1875 
L 8.015625 -13.1875 
Q 14.5 -2 17.703125 9.0625 
Q 20.90625 20.125 20.90625 31.390625 
Q 20.90625 42.671875 17.703125 53.65625 
Q 14.5 64.65625 8.015625 75.875 
z
" id="DejaVuSans-29"/>
     </defs>
     <g transform="translate(332.642188 27.298437)scale(0.1 -0.1)">
      <use transform="translate(0 0.015625)" xlink:href="#DejaVuSans-Oblique-66"/>
      <use transform="translate(35.205078 0.015625)" xlink:href="#DejaVuSans-28"/>
      <use transform="translate(74.21875 0.015625)" xlink:href="#DejaVuSans-Oblique-78"/>
      <use transform="translate(133.398438 0.015625)" xlink:href="#DejaVuSans-29"/>
     </g>
    </g>
    <g id="PathCollection_3">
     <g>
      <use style="fill:#1f77b4;stroke:#1f77b4;" x="314.642188" xlink:href="#m6dbdb14196" y="39.351562"/>
     </g>
    </g>
    <g id="text_14">
     <!-- $\mathcal{T}_1$ -->
     <defs>
      <path d="M 71.203125 72.09375 
L 73 70.59375 
Q 64.59375 56.796875 42.90625 55.90625 
L 32.09375 18.703125 
Q 30.203125 12.296875 28.140625 8.390625 
Q 26.09375 4.5 23.1875 2.703125 
Q 20.296875 0.90625 17.75 0.453125 
Q 15.203125 0 10.796875 0 
L 11.703125 2.40625 
Q 14.59375 2.40625 16.546875 5.09375 
Q 18.5 7.796875 20.09375 13.59375 
L 29.40625 46 
Q 31.90625 55 31.90625 56.796875 
Q 31.90625 58.296875 30.84375 59.140625 
Q 29.796875 60 28.40625 60 
Q 23.40625 60 17.34375 57.25 
Q 11.296875 54.5 6.09375 47.703125 
L 4.09375 49.09375 
Q 10.59375 58.5 18.9375 62.390625 
Q 27.296875 66.296875 42.703125 66.296875 
Q 44.796875 66.296875 48.09375 66 
Q 51.40625 65.703125 52.796875 65.703125 
Q 67 65.703125 71.203125 72.09375 
z
" id="STIXNonUnicode-Italic-e240"/>
     </defs>
     <g transform="translate(332.642188 41.976562)scale(0.1 -0.1)">
      <use transform="translate(0 0.90625)" xlink:href="#STIXNonUnicode-Italic-e240"/>
      <use transform="translate(51.857025 -15.5)scale(0.7)" xlink:href="#DejaVuSans-31"/>
     </g>
    </g>
    <g id="line2d_18">
     <path d="M 304.642188 56.476562 
L 324.642188 56.476562 
" style="fill:none;stroke:#1f77b4;stroke-linecap:square;stroke-width:1.5;"/>
    </g>
    <g id="line2d_19"/>
    <g id="text_15">
     <!-- $\hat{f}_1(x)$ -->
     <defs>
      <path d="M -28.609375 79.984375 
L -21.390625 79.984375 
L -9.421875 61.625 
L -16.21875 61.625 
L -25 73.578125 
L -33.796875 61.625 
L -40.578125 61.625 
z
M -25 56 
z
" id="DejaVuSans-302"/>
     </defs>
     <g transform="translate(332.642188 59.976562)scale(0.1 -0.1)">
      <use transform="translate(47.379395 33.015625)" xlink:href="#DejaVuSans-302"/>
      <use transform="translate(0 0.53125)" xlink:href="#DejaVuSans-Oblique-66"/>
      <use transform="translate(36.162109 -15.875)scale(0.7)" xlink:href="#DejaVuSans-31"/>
      <use transform="translate(83.432617 0.53125)" xlink:href="#DejaVuSans-28"/>
      <use transform="translate(122.446289 0.53125)" xlink:href="#DejaVuSans-Oblique-78"/>
      <use transform="translate(181.625977 0.53125)" xlink:href="#DejaVuSans-29"/>
     </g>
    </g>
    <g id="PathCollection_4">
     <g>
      <use style="fill:#ff7f0e;stroke:#ff7f0e;" x="314.642188" xlink:href="#md5a3a03a85" y="72.029687"/>
     </g>
    </g>
    <g id="text_16">
     <!-- $\mathcal{T}_2$ -->
     <g transform="translate(332.642188 74.654687)scale(0.1 -0.1)">
      <use transform="translate(0 0.90625)" xlink:href="#STIXNonUnicode-Italic-e240"/>
      <use transform="translate(51.857025 -15.5)scale(0.7)" xlink:href="#DejaVuSans-32"/>
     </g>
    </g>
    <g id="line2d_20">
     <path d="M 304.642188 89.154687 
L 324.642188 89.154687 
" style="fill:none;stroke:#ff7f0e;stroke-linecap:square;stroke-width:1.5;"/>
    </g>
    <g id="line2d_21"/>
    <g id="text_17">
     <!-- $\hat{f}_2(x)$ -->
     <g transform="translate(332.642188 92.654687)scale(0.1 -0.1)">
      <use transform="translate(47.379395 33.015625)" xlink:href="#DejaVuSans-302"/>
      <use transform="translate(0 0.53125)" xlink:href="#DejaVuSans-Oblique-66"/>
      <use transform="translate(36.162109 -15.875)scale(0.7)" xlink:href="#DejaVuSans-32"/>
      <use transform="translate(83.432617 0.53125)" xlink:href="#DejaVuSans-28"/>
      <use transform="translate(122.446289 0.53125)" xlink:href="#DejaVuSans-Oblique-78"/>
      <use transform="translate(181.625977 0.53125)" xlink:href="#DejaVuSans-29"/>
     </g>
    </g>
   </g>
  </g>
 </g>
 <defs>
  <clipPath id="p4f4c1e051a">
   <rect height="217.44" width="334.8" x="28.942188" y="10.7"/>
  </clipPath>
 </defs>
</svg>
