<?xml version="1.0" encoding="utf-8" standalone="no"?>
<!DOCTYPE svg PUBLIC "-//W3C//DTD SVG 1.1//EN"
  "http://www.w3.org/Graphics/SVG/1.1/DTD/svg11.dtd">
<!-- Created with matplotlib (http://matplotlib.org/) -->
<svg height="288pt" version="1.1" viewBox="0 0 432 288" width="432pt" xmlns="http://www.w3.org/2000/svg" xmlns:xlink="http://www.w3.org/1999/xlink">
 <defs>
  <style type="text/css">
*{stroke-linecap:butt;stroke-linejoin:round;}
  </style>
 </defs>
 <g id="figure_1">
  <g id="patch_1">
   <path d="M 0 288 
L 432 288 
L 432 0 
L 0 0 
z
" style="fill:#ffffff;"/>
  </g>
  <g id="axes_1">
   <g id="patch_2">
    <path d="M 54 252 
L 388.8 252 
L 388.8 34.56 
L 54 34.56 
z
" style="fill:#ffffff;"/>
   </g>
   <g id="matplotlib.axis_1">
    <g id="xtick_1">
     <g id="line2d_1">
      <defs>
       <path d="M 0 0 
L 0 3.5 
" id="m502a1ba7f6" style="stroke:#000000;stroke-width:0.8;"/>
      </defs>
      <g>
       <use style="stroke:#000000;stroke-width:0.8;" x="84.436364" xlink:href="#m502a1ba7f6" y="252"/>
      </g>
     </g>
     <g id="text_1">
      <!-- −6 -->
      <defs>
       <path d="M 10.59375 35.5 
L 73.1875 35.5 
L 73.1875 27.203125 
L 10.59375 27.203125 
z
" id="DejaVuSans-2212"/>
       <path d="M 33.015625 40.375 
Q 26.375 40.375 22.484375 35.828125 
Q 18.609375 31.296875 18.609375 23.390625 
Q 18.609375 15.53125 22.484375 10.953125 
Q 26.375 6.390625 33.015625 6.390625 
Q 39.65625 6.390625 43.53125 10.953125 
Q 47.40625 15.53125 47.40625 23.390625 
Q 47.40625 31.296875 43.53125 35.828125 
Q 39.65625 40.375 33.015625 40.375 
z
M 52.59375 71.296875 
L 52.59375 62.3125 
Q 48.875 64.0625 45.09375 64.984375 
Q 41.3125 65.921875 37.59375 65.921875 
Q 27.828125 65.921875 22.671875 59.328125 
Q 17.53125 52.734375 16.796875 39.40625 
Q 19.671875 43.65625 24.015625 45.921875 
Q 28.375 48.1875 33.59375 48.1875 
Q 44.578125 48.1875 50.953125 41.515625 
Q 57.328125 34.859375 57.328125 23.390625 
Q 57.328125 12.15625 50.6875 5.359375 
Q 44.046875 -1.421875 33.015625 -1.421875 
Q 20.359375 -1.421875 13.671875 8.265625 
Q 6.984375 17.96875 6.984375 36.375 
Q 6.984375 53.65625 15.1875 63.9375 
Q 23.390625 74.21875 37.203125 74.21875 
Q 40.921875 74.21875 44.703125 73.484375 
Q 48.484375 72.75 52.59375 71.296875 
z
" id="DejaVuSans-36"/>
      </defs>
      <g transform="translate(77.06527 266.598437)scale(0.1 -0.1)">
       <use xlink:href="#DejaVuSans-2212"/>
       <use x="83.789062" xlink:href="#DejaVuSans-36"/>
      </g>
     </g>
    </g>
    <g id="xtick_2">
     <g id="line2d_2">
      <g>
       <use style="stroke:#000000;stroke-width:0.8;" x="145.309091" xlink:href="#m502a1ba7f6" y="252"/>
      </g>
     </g>
     <g id="text_2">
      <!-- −4 -->
      <defs>
       <path d="M 37.796875 64.3125 
L 12.890625 25.390625 
L 37.796875 25.390625 
z
M 35.203125 72.90625 
L 47.609375 72.90625 
L 47.609375 25.390625 
L 58.015625 25.390625 
L 58.015625 17.1875 
L 47.609375 17.1875 
L 47.609375 0 
L 37.796875 0 
L 37.796875 17.1875 
L 4.890625 17.1875 
L 4.890625 26.703125 
z
" id="DejaVuSans-34"/>
      </defs>
      <g transform="translate(137.937997 266.598437)scale(0.1 -0.1)">
       <use xlink:href="#DejaVuSans-2212"/>
       <use x="83.789062" xlink:href="#DejaVuSans-34"/>
      </g>
     </g>
    </g>
    <g id="xtick_3">
     <g id="line2d_3">
      <g>
       <use style="stroke:#000000;stroke-width:0.8;" x="206.181818" xlink:href="#m502a1ba7f6" y="252"/>
      </g>
     </g>
     <g id="text_3">
      <!-- −2 -->
      <defs>
       <path d="M 19.1875 8.296875 
L 53.609375 8.296875 
L 53.609375 0 
L 7.328125 0 
L 7.328125 8.296875 
Q 12.9375 14.109375 22.625 23.890625 
Q 32.328125 33.6875 34.8125 36.53125 
Q 39.546875 41.84375 41.421875 45.53125 
Q 43.3125 49.21875 43.3125 52.78125 
Q 43.3125 58.59375 39.234375 62.25 
Q 35.15625 65.921875 28.609375 65.921875 
Q 23.96875 65.921875 18.8125 64.3125 
Q 13.671875 62.703125 7.8125 59.421875 
L 7.8125 69.390625 
Q 13.765625 71.78125 18.9375 73 
Q 24.125 74.21875 28.421875 74.21875 
Q 39.75 74.21875 46.484375 68.546875 
Q 53.21875 62.890625 53.21875 53.421875 
Q 53.21875 48.921875 51.53125 44.890625 
Q 49.859375 40.875 45.40625 35.40625 
Q 44.1875 33.984375 37.640625 27.21875 
Q 31.109375 20.453125 19.1875 8.296875 
z
" id="DejaVuSans-32"/>
      </defs>
      <g transform="translate(198.810724 266.598437)scale(0.1 -0.1)">
       <use xlink:href="#DejaVuSans-2212"/>
       <use x="83.789062" xlink:href="#DejaVuSans-32"/>
      </g>
     </g>
    </g>
    <g id="xtick_4">
     <g id="line2d_4">
      <g>
       <use style="stroke:#000000;stroke-width:0.8;" x="267.054545" xlink:href="#m502a1ba7f6" y="252"/>
      </g>
     </g>
     <g id="text_4">
      <!-- 0 -->
      <defs>
       <path d="M 31.78125 66.40625 
Q 24.171875 66.40625 20.328125 58.90625 
Q 16.5 51.421875 16.5 36.375 
Q 16.5 21.390625 20.328125 13.890625 
Q 24.171875 6.390625 31.78125 6.390625 
Q 39.453125 6.390625 43.28125 13.890625 
Q 47.125 21.390625 47.125 36.375 
Q 47.125 51.421875 43.28125 58.90625 
Q 39.453125 66.40625 31.78125 66.40625 
z
M 31.78125 74.21875 
Q 44.046875 74.21875 50.515625 64.515625 
Q 56.984375 54.828125 56.984375 36.375 
Q 56.984375 17.96875 50.515625 8.265625 
Q 44.046875 -1.421875 31.78125 -1.421875 
Q 19.53125 -1.421875 13.0625 8.265625 
Q 6.59375 17.96875 6.59375 36.375 
Q 6.59375 54.828125 13.0625 64.515625 
Q 19.53125 74.21875 31.78125 74.21875 
z
" id="DejaVuSans-30"/>
      </defs>
      <g transform="translate(263.873295 266.598437)scale(0.1 -0.1)">
       <use xlink:href="#DejaVuSans-30"/>
      </g>
     </g>
    </g>
    <g id="xtick_5">
     <g id="line2d_5">
      <g>
       <use style="stroke:#000000;stroke-width:0.8;" x="327.927273" xlink:href="#m502a1ba7f6" y="252"/>
      </g>
     </g>
     <g id="text_5">
      <!-- 2 -->
      <g transform="translate(324.746023 266.598437)scale(0.1 -0.1)">
       <use xlink:href="#DejaVuSans-32"/>
      </g>
     </g>
    </g>
    <g id="xtick_6">
     <g id="line2d_6">
      <g>
       <use style="stroke:#000000;stroke-width:0.8;" x="388.8" xlink:href="#m502a1ba7f6" y="252"/>
      </g>
     </g>
     <g id="text_6">
      <!-- 4 -->
      <g transform="translate(385.61875 266.598437)scale(0.1 -0.1)">
       <use xlink:href="#DejaVuSans-34"/>
      </g>
     </g>
    </g>
    <g id="text_7">
     <!-- Sample mean of Cauchy distribution -->
     <defs>
      <path d="M 53.515625 70.515625 
L 53.515625 60.890625 
Q 47.90625 63.578125 42.921875 64.890625 
Q 37.9375 66.21875 33.296875 66.21875 
Q 25.25 66.21875 20.875 63.09375 
Q 16.5 59.96875 16.5 54.203125 
Q 16.5 49.359375 19.40625 46.890625 
Q 22.3125 44.4375 30.421875 42.921875 
L 36.375 41.703125 
Q 47.40625 39.59375 52.65625 34.296875 
Q 57.90625 29 57.90625 20.125 
Q 57.90625 9.515625 50.796875 4.046875 
Q 43.703125 -1.421875 29.984375 -1.421875 
Q 24.8125 -1.421875 18.96875 -0.25 
Q 13.140625 0.921875 6.890625 3.21875 
L 6.890625 13.375 
Q 12.890625 10.015625 18.65625 8.296875 
Q 24.421875 6.59375 29.984375 6.59375 
Q 38.421875 6.59375 43.015625 9.90625 
Q 47.609375 13.234375 47.609375 19.390625 
Q 47.609375 24.75 44.3125 27.78125 
Q 41.015625 30.8125 33.5 32.328125 
L 27.484375 33.5 
Q 16.453125 35.6875 11.515625 40.375 
Q 6.59375 45.0625 6.59375 53.421875 
Q 6.59375 63.09375 13.40625 68.65625 
Q 20.21875 74.21875 32.171875 74.21875 
Q 37.3125 74.21875 42.625 73.28125 
Q 47.953125 72.359375 53.515625 70.515625 
z
" id="DejaVuSans-53"/>
      <path d="M 34.28125 27.484375 
Q 23.390625 27.484375 19.1875 25 
Q 14.984375 22.515625 14.984375 16.5 
Q 14.984375 11.71875 18.140625 8.90625 
Q 21.296875 6.109375 26.703125 6.109375 
Q 34.1875 6.109375 38.703125 11.40625 
Q 43.21875 16.703125 43.21875 25.484375 
L 43.21875 27.484375 
z
M 52.203125 31.203125 
L 52.203125 0 
L 43.21875 0 
L 43.21875 8.296875 
Q 40.140625 3.328125 35.546875 0.953125 
Q 30.953125 -1.421875 24.3125 -1.421875 
Q 15.921875 -1.421875 10.953125 3.296875 
Q 6 8.015625 6 15.921875 
Q 6 25.140625 12.171875 29.828125 
Q 18.359375 34.515625 30.609375 34.515625 
L 43.21875 34.515625 
L 43.21875 35.40625 
Q 43.21875 41.609375 39.140625 45 
Q 35.0625 48.390625 27.6875 48.390625 
Q 23 48.390625 18.546875 47.265625 
Q 14.109375 46.140625 10.015625 43.890625 
L 10.015625 52.203125 
Q 14.9375 54.109375 19.578125 55.046875 
Q 24.21875 56 28.609375 56 
Q 40.484375 56 46.34375 49.84375 
Q 52.203125 43.703125 52.203125 31.203125 
z
" id="DejaVuSans-61"/>
      <path d="M 52 44.1875 
Q 55.375 50.25 60.0625 53.125 
Q 64.75 56 71.09375 56 
Q 79.640625 56 84.28125 50.015625 
Q 88.921875 44.046875 88.921875 33.015625 
L 88.921875 0 
L 79.890625 0 
L 79.890625 32.71875 
Q 79.890625 40.578125 77.09375 44.375 
Q 74.3125 48.1875 68.609375 48.1875 
Q 61.625 48.1875 57.5625 43.546875 
Q 53.515625 38.921875 53.515625 30.90625 
L 53.515625 0 
L 44.484375 0 
L 44.484375 32.71875 
Q 44.484375 40.625 41.703125 44.40625 
Q 38.921875 48.1875 33.109375 48.1875 
Q 26.21875 48.1875 22.15625 43.53125 
Q 18.109375 38.875 18.109375 30.90625 
L 18.109375 0 
L 9.078125 0 
L 9.078125 54.6875 
L 18.109375 54.6875 
L 18.109375 46.1875 
Q 21.1875 51.21875 25.484375 53.609375 
Q 29.78125 56 35.6875 56 
Q 41.65625 56 45.828125 52.96875 
Q 50 49.953125 52 44.1875 
z
" id="DejaVuSans-6d"/>
      <path d="M 18.109375 8.203125 
L 18.109375 -20.796875 
L 9.078125 -20.796875 
L 9.078125 54.6875 
L 18.109375 54.6875 
L 18.109375 46.390625 
Q 20.953125 51.265625 25.265625 53.625 
Q 29.59375 56 35.59375 56 
Q 45.5625 56 51.78125 48.09375 
Q 58.015625 40.1875 58.015625 27.296875 
Q 58.015625 14.40625 51.78125 6.484375 
Q 45.5625 -1.421875 35.59375 -1.421875 
Q 29.59375 -1.421875 25.265625 0.953125 
Q 20.953125 3.328125 18.109375 8.203125 
z
M 48.6875 27.296875 
Q 48.6875 37.203125 44.609375 42.84375 
Q 40.53125 48.484375 33.40625 48.484375 
Q 26.265625 48.484375 22.1875 42.84375 
Q 18.109375 37.203125 18.109375 27.296875 
Q 18.109375 17.390625 22.1875 11.75 
Q 26.265625 6.109375 33.40625 6.109375 
Q 40.53125 6.109375 44.609375 11.75 
Q 48.6875 17.390625 48.6875 27.296875 
z
" id="DejaVuSans-70"/>
      <path d="M 9.421875 75.984375 
L 18.40625 75.984375 
L 18.40625 0 
L 9.421875 0 
z
" id="DejaVuSans-6c"/>
      <path d="M 56.203125 29.59375 
L 56.203125 25.203125 
L 14.890625 25.203125 
Q 15.484375 15.921875 20.484375 11.0625 
Q 25.484375 6.203125 34.421875 6.203125 
Q 39.59375 6.203125 44.453125 7.46875 
Q 49.3125 8.734375 54.109375 11.28125 
L 54.109375 2.78125 
Q 49.265625 0.734375 44.1875 -0.34375 
Q 39.109375 -1.421875 33.890625 -1.421875 
Q 20.796875 -1.421875 13.15625 6.1875 
Q 5.515625 13.8125 5.515625 26.8125 
Q 5.515625 40.234375 12.765625 48.109375 
Q 20.015625 56 32.328125 56 
Q 43.359375 56 49.78125 48.890625 
Q 56.203125 41.796875 56.203125 29.59375 
z
M 47.21875 32.234375 
Q 47.125 39.59375 43.09375 43.984375 
Q 39.0625 48.390625 32.421875 48.390625 
Q 24.90625 48.390625 20.390625 44.140625 
Q 15.875 39.890625 15.1875 32.171875 
z
" id="DejaVuSans-65"/>
      <path id="DejaVuSans-20"/>
      <path d="M 54.890625 33.015625 
L 54.890625 0 
L 45.90625 0 
L 45.90625 32.71875 
Q 45.90625 40.484375 42.875 44.328125 
Q 39.84375 48.1875 33.796875 48.1875 
Q 26.515625 48.1875 22.3125 43.546875 
Q 18.109375 38.921875 18.109375 30.90625 
L 18.109375 0 
L 9.078125 0 
L 9.078125 54.6875 
L 18.109375 54.6875 
L 18.109375 46.1875 
Q 21.34375 51.125 25.703125 53.5625 
Q 30.078125 56 35.796875 56 
Q 45.21875 56 50.046875 50.171875 
Q 54.890625 44.34375 54.890625 33.015625 
z
" id="DejaVuSans-6e"/>
      <path d="M 30.609375 48.390625 
Q 23.390625 48.390625 19.1875 42.75 
Q 14.984375 37.109375 14.984375 27.296875 
Q 14.984375 17.484375 19.15625 11.84375 
Q 23.34375 6.203125 30.609375 6.203125 
Q 37.796875 6.203125 41.984375 11.859375 
Q 46.1875 17.53125 46.1875 27.296875 
Q 46.1875 37.015625 41.984375 42.703125 
Q 37.796875 48.390625 30.609375 48.390625 
z
M 30.609375 56 
Q 42.328125 56 49.015625 48.375 
Q 55.71875 40.765625 55.71875 27.296875 
Q 55.71875 13.875 49.015625 6.21875 
Q 42.328125 -1.421875 30.609375 -1.421875 
Q 18.84375 -1.421875 12.171875 6.21875 
Q 5.515625 13.875 5.515625 27.296875 
Q 5.515625 40.765625 12.171875 48.375 
Q 18.84375 56 30.609375 56 
z
" id="DejaVuSans-6f"/>
      <path d="M 37.109375 75.984375 
L 37.109375 68.5 
L 28.515625 68.5 
Q 23.6875 68.5 21.796875 66.546875 
Q 19.921875 64.59375 19.921875 59.515625 
L 19.921875 54.6875 
L 34.71875 54.6875 
L 34.71875 47.703125 
L 19.921875 47.703125 
L 19.921875 0 
L 10.890625 0 
L 10.890625 47.703125 
L 2.296875 47.703125 
L 2.296875 54.6875 
L 10.890625 54.6875 
L 10.890625 58.5 
Q 10.890625 67.625 15.140625 71.796875 
Q 19.390625 75.984375 28.609375 75.984375 
z
" id="DejaVuSans-66"/>
      <path d="M 64.40625 67.28125 
L 64.40625 56.890625 
Q 59.421875 61.53125 53.78125 63.8125 
Q 48.140625 66.109375 41.796875 66.109375 
Q 29.296875 66.109375 22.65625 58.46875 
Q 16.015625 50.828125 16.015625 36.375 
Q 16.015625 21.96875 22.65625 14.328125 
Q 29.296875 6.6875 41.796875 6.6875 
Q 48.140625 6.6875 53.78125 8.984375 
Q 59.421875 11.28125 64.40625 15.921875 
L 64.40625 5.609375 
Q 59.234375 2.09375 53.4375 0.328125 
Q 47.65625 -1.421875 41.21875 -1.421875 
Q 24.65625 -1.421875 15.125 8.703125 
Q 5.609375 18.84375 5.609375 36.375 
Q 5.609375 53.953125 15.125 64.078125 
Q 24.65625 74.21875 41.21875 74.21875 
Q 47.75 74.21875 53.53125 72.484375 
Q 59.328125 70.75 64.40625 67.28125 
z
" id="DejaVuSans-43"/>
      <path d="M 8.5 21.578125 
L 8.5 54.6875 
L 17.484375 54.6875 
L 17.484375 21.921875 
Q 17.484375 14.15625 20.5 10.265625 
Q 23.53125 6.390625 29.59375 6.390625 
Q 36.859375 6.390625 41.078125 11.03125 
Q 45.3125 15.671875 45.3125 23.6875 
L 45.3125 54.6875 
L 54.296875 54.6875 
L 54.296875 0 
L 45.3125 0 
L 45.3125 8.40625 
Q 42.046875 3.421875 37.71875 1 
Q 33.40625 -1.421875 27.6875 -1.421875 
Q 18.265625 -1.421875 13.375 4.4375 
Q 8.5 10.296875 8.5 21.578125 
z
M 31.109375 56 
z
" id="DejaVuSans-75"/>
      <path d="M 48.78125 52.59375 
L 48.78125 44.1875 
Q 44.96875 46.296875 41.140625 47.34375 
Q 37.3125 48.390625 33.40625 48.390625 
Q 24.65625 48.390625 19.8125 42.84375 
Q 14.984375 37.3125 14.984375 27.296875 
Q 14.984375 17.28125 19.8125 11.734375 
Q 24.65625 6.203125 33.40625 6.203125 
Q 37.3125 6.203125 41.140625 7.25 
Q 44.96875 8.296875 48.78125 10.40625 
L 48.78125 2.09375 
Q 45.015625 0.34375 40.984375 -0.53125 
Q 36.96875 -1.421875 32.421875 -1.421875 
Q 20.0625 -1.421875 12.78125 6.34375 
Q 5.515625 14.109375 5.515625 27.296875 
Q 5.515625 40.671875 12.859375 48.328125 
Q 20.21875 56 33.015625 56 
Q 37.15625 56 41.109375 55.140625 
Q 45.0625 54.296875 48.78125 52.59375 
z
" id="DejaVuSans-63"/>
      <path d="M 54.890625 33.015625 
L 54.890625 0 
L 45.90625 0 
L 45.90625 32.71875 
Q 45.90625 40.484375 42.875 44.328125 
Q 39.84375 48.1875 33.796875 48.1875 
Q 26.515625 48.1875 22.3125 43.546875 
Q 18.109375 38.921875 18.109375 30.90625 
L 18.109375 0 
L 9.078125 0 
L 9.078125 75.984375 
L 18.109375 75.984375 
L 18.109375 46.1875 
Q 21.34375 51.125 25.703125 53.5625 
Q 30.078125 56 35.796875 56 
Q 45.21875 56 50.046875 50.171875 
Q 54.890625 44.34375 54.890625 33.015625 
z
" id="DejaVuSans-68"/>
      <path d="M 32.171875 -5.078125 
Q 28.375 -14.84375 24.75 -17.8125 
Q 21.140625 -20.796875 15.09375 -20.796875 
L 7.90625 -20.796875 
L 7.90625 -13.28125 
L 13.1875 -13.28125 
Q 16.890625 -13.28125 18.9375 -11.515625 
Q 21 -9.765625 23.484375 -3.21875 
L 25.09375 0.875 
L 2.984375 54.6875 
L 12.5 54.6875 
L 29.59375 11.921875 
L 46.6875 54.6875 
L 56.203125 54.6875 
z
" id="DejaVuSans-79"/>
      <path d="M 45.40625 46.390625 
L 45.40625 75.984375 
L 54.390625 75.984375 
L 54.390625 0 
L 45.40625 0 
L 45.40625 8.203125 
Q 42.578125 3.328125 38.25 0.953125 
Q 33.9375 -1.421875 27.875 -1.421875 
Q 17.96875 -1.421875 11.734375 6.484375 
Q 5.515625 14.40625 5.515625 27.296875 
Q 5.515625 40.1875 11.734375 48.09375 
Q 17.96875 56 27.875 56 
Q 33.9375 56 38.25 53.625 
Q 42.578125 51.265625 45.40625 46.390625 
z
M 14.796875 27.296875 
Q 14.796875 17.390625 18.875 11.75 
Q 22.953125 6.109375 30.078125 6.109375 
Q 37.203125 6.109375 41.296875 11.75 
Q 45.40625 17.390625 45.40625 27.296875 
Q 45.40625 37.203125 41.296875 42.84375 
Q 37.203125 48.484375 30.078125 48.484375 
Q 22.953125 48.484375 18.875 42.84375 
Q 14.796875 37.203125 14.796875 27.296875 
z
" id="DejaVuSans-64"/>
      <path d="M 9.421875 54.6875 
L 18.40625 54.6875 
L 18.40625 0 
L 9.421875 0 
z
M 9.421875 75.984375 
L 18.40625 75.984375 
L 18.40625 64.59375 
L 9.421875 64.59375 
z
" id="DejaVuSans-69"/>
      <path d="M 44.28125 53.078125 
L 44.28125 44.578125 
Q 40.484375 46.53125 36.375 47.5 
Q 32.28125 48.484375 27.875 48.484375 
Q 21.1875 48.484375 17.84375 46.4375 
Q 14.5 44.390625 14.5 40.28125 
Q 14.5 37.15625 16.890625 35.375 
Q 19.28125 33.59375 26.515625 31.984375 
L 29.59375 31.296875 
Q 39.15625 29.25 43.1875 25.515625 
Q 47.21875 21.78125 47.21875 15.09375 
Q 47.21875 7.46875 41.1875 3.015625 
Q 35.15625 -1.421875 24.609375 -1.421875 
Q 20.21875 -1.421875 15.453125 -0.5625 
Q 10.6875 0.296875 5.421875 2 
L 5.421875 11.28125 
Q 10.40625 8.6875 15.234375 7.390625 
Q 20.0625 6.109375 24.8125 6.109375 
Q 31.15625 6.109375 34.5625 8.28125 
Q 37.984375 10.453125 37.984375 14.40625 
Q 37.984375 18.0625 35.515625 20.015625 
Q 33.0625 21.96875 24.703125 23.78125 
L 21.578125 24.515625 
Q 13.234375 26.265625 9.515625 29.90625 
Q 5.8125 33.546875 5.8125 39.890625 
Q 5.8125 47.609375 11.28125 51.796875 
Q 16.75 56 26.8125 56 
Q 31.78125 56 36.171875 55.265625 
Q 40.578125 54.546875 44.28125 53.078125 
z
" id="DejaVuSans-73"/>
      <path d="M 18.3125 70.21875 
L 18.3125 54.6875 
L 36.8125 54.6875 
L 36.8125 47.703125 
L 18.3125 47.703125 
L 18.3125 18.015625 
Q 18.3125 11.328125 20.140625 9.421875 
Q 21.96875 7.515625 27.59375 7.515625 
L 36.8125 7.515625 
L 36.8125 0 
L 27.59375 0 
Q 17.1875 0 13.234375 3.875 
Q 9.28125 7.765625 9.28125 18.015625 
L 9.28125 47.703125 
L 2.6875 47.703125 
L 2.6875 54.6875 
L 9.28125 54.6875 
L 9.28125 70.21875 
z
" id="DejaVuSans-74"/>
      <path d="M 41.109375 46.296875 
Q 39.59375 47.171875 37.8125 47.578125 
Q 36.03125 48 33.890625 48 
Q 26.265625 48 22.1875 43.046875 
Q 18.109375 38.09375 18.109375 28.8125 
L 18.109375 0 
L 9.078125 0 
L 9.078125 54.6875 
L 18.109375 54.6875 
L 18.109375 46.1875 
Q 20.953125 51.171875 25.484375 53.578125 
Q 30.03125 56 36.53125 56 
Q 37.453125 56 38.578125 55.875 
Q 39.703125 55.765625 41.0625 55.515625 
z
" id="DejaVuSans-72"/>
      <path d="M 48.6875 27.296875 
Q 48.6875 37.203125 44.609375 42.84375 
Q 40.53125 48.484375 33.40625 48.484375 
Q 26.265625 48.484375 22.1875 42.84375 
Q 18.109375 37.203125 18.109375 27.296875 
Q 18.109375 17.390625 22.1875 11.75 
Q 26.265625 6.109375 33.40625 6.109375 
Q 40.53125 6.109375 44.609375 11.75 
Q 48.6875 17.390625 48.6875 27.296875 
z
M 18.109375 46.390625 
Q 20.953125 51.265625 25.265625 53.625 
Q 29.59375 56 35.59375 56 
Q 45.5625 56 51.78125 48.09375 
Q 58.015625 40.1875 58.015625 27.296875 
Q 58.015625 14.40625 51.78125 6.484375 
Q 45.5625 -1.421875 35.59375 -1.421875 
Q 29.59375 -1.421875 25.265625 0.953125 
Q 20.953125 3.328125 18.109375 8.203125 
L 18.109375 0 
L 9.078125 0 
L 9.078125 75.984375 
L 18.109375 75.984375 
z
" id="DejaVuSans-62"/>
     </defs>
     <g transform="translate(130.201562 280.276563)scale(0.1 -0.1)">
      <use xlink:href="#DejaVuSans-53"/>
      <use x="63.476562" xlink:href="#DejaVuSans-61"/>
      <use x="124.755859" xlink:href="#DejaVuSans-6d"/>
      <use x="222.167969" xlink:href="#DejaVuSans-70"/>
      <use x="285.644531" xlink:href="#DejaVuSans-6c"/>
      <use x="313.427734" xlink:href="#DejaVuSans-65"/>
      <use x="374.951172" xlink:href="#DejaVuSans-20"/>
      <use x="406.738281" xlink:href="#DejaVuSans-6d"/>
      <use x="504.150391" xlink:href="#DejaVuSans-65"/>
      <use x="565.673828" xlink:href="#DejaVuSans-61"/>
      <use x="626.953125" xlink:href="#DejaVuSans-6e"/>
      <use x="690.332031" xlink:href="#DejaVuSans-20"/>
      <use x="722.119141" xlink:href="#DejaVuSans-6f"/>
      <use x="783.300781" xlink:href="#DejaVuSans-66"/>
      <use x="818.505859" xlink:href="#DejaVuSans-20"/>
      <use x="850.292969" xlink:href="#DejaVuSans-43"/>
      <use x="920.117188" xlink:href="#DejaVuSans-61"/>
      <use x="981.396484" xlink:href="#DejaVuSans-75"/>
      <use x="1044.775391" xlink:href="#DejaVuSans-63"/>
      <use x="1099.755859" xlink:href="#DejaVuSans-68"/>
      <use x="1163.134766" xlink:href="#DejaVuSans-79"/>
      <use x="1222.314453" xlink:href="#DejaVuSans-20"/>
      <use x="1254.101562" xlink:href="#DejaVuSans-64"/>
      <use x="1317.578125" xlink:href="#DejaVuSans-69"/>
      <use x="1345.361328" xlink:href="#DejaVuSans-73"/>
      <use x="1397.460938" xlink:href="#DejaVuSans-74"/>
      <use x="1436.669922" xlink:href="#DejaVuSans-72"/>
      <use x="1477.783203" xlink:href="#DejaVuSans-69"/>
      <use x="1505.566406" xlink:href="#DejaVuSans-62"/>
      <use x="1569.042969" xlink:href="#DejaVuSans-75"/>
      <use x="1632.421875" xlink:href="#DejaVuSans-74"/>
      <use x="1671.630859" xlink:href="#DejaVuSans-69"/>
      <use x="1699.414062" xlink:href="#DejaVuSans-6f"/>
      <use x="1760.595703" xlink:href="#DejaVuSans-6e"/>
     </g>
    </g>
   </g>
   <g id="matplotlib.axis_2">
    <g id="ytick_1">
     <g id="line2d_7">
      <defs>
       <path d="M 0 0 
L -3.5 0 
" id="mfc6ee77a9c" style="stroke:#000000;stroke-width:0.8;"/>
      </defs>
      <g>
       <use style="stroke:#000000;stroke-width:0.8;" x="54" xlink:href="#mfc6ee77a9c" y="252"/>
      </g>
     </g>
     <g id="text_8">
      <!-- 0.0 -->
      <defs>
       <path d="M 10.6875 12.40625 
L 21 12.40625 
L 21 0 
L 10.6875 0 
z
" id="DejaVuSans-2e"/>
      </defs>
      <g transform="translate(31.096875 255.799219)scale(0.1 -0.1)">
       <use xlink:href="#DejaVuSans-30"/>
       <use x="63.623047" xlink:href="#DejaVuSans-2e"/>
       <use x="95.410156" xlink:href="#DejaVuSans-30"/>
      </g>
     </g>
    </g>
    <g id="ytick_2">
     <g id="line2d_8">
      <g>
       <use style="stroke:#000000;stroke-width:0.8;" x="54" xlink:href="#mfc6ee77a9c" y="219.054545"/>
      </g>
     </g>
     <g id="text_9">
      <!-- 0.5 -->
      <defs>
       <path d="M 10.796875 72.90625 
L 49.515625 72.90625 
L 49.515625 64.59375 
L 19.828125 64.59375 
L 19.828125 46.734375 
Q 21.96875 47.46875 24.109375 47.828125 
Q 26.265625 48.1875 28.421875 48.1875 
Q 40.625 48.1875 47.75 41.5 
Q 54.890625 34.8125 54.890625 23.390625 
Q 54.890625 11.625 47.5625 5.09375 
Q 40.234375 -1.421875 26.90625 -1.421875 
Q 22.3125 -1.421875 17.546875 -0.640625 
Q 12.796875 0.140625 7.71875 1.703125 
L 7.71875 11.625 
Q 12.109375 9.234375 16.796875 8.0625 
Q 21.484375 6.890625 26.703125 6.890625 
Q 35.15625 6.890625 40.078125 11.328125 
Q 45.015625 15.765625 45.015625 23.390625 
Q 45.015625 31 40.078125 35.4375 
Q 35.15625 39.890625 26.703125 39.890625 
Q 22.75 39.890625 18.8125 39.015625 
Q 14.890625 38.140625 10.796875 36.28125 
z
" id="DejaVuSans-35"/>
      </defs>
      <g transform="translate(31.096875 222.853764)scale(0.1 -0.1)">
       <use xlink:href="#DejaVuSans-30"/>
       <use x="63.623047" xlink:href="#DejaVuSans-2e"/>
       <use x="95.410156" xlink:href="#DejaVuSans-35"/>
      </g>
     </g>
    </g>
    <g id="ytick_3">
     <g id="line2d_9">
      <g>
       <use style="stroke:#000000;stroke-width:0.8;" x="54" xlink:href="#mfc6ee77a9c" y="186.109091"/>
      </g>
     </g>
     <g id="text_10">
      <!-- 1.0 -->
      <defs>
       <path d="M 12.40625 8.296875 
L 28.515625 8.296875 
L 28.515625 63.921875 
L 10.984375 60.40625 
L 10.984375 69.390625 
L 28.421875 72.90625 
L 38.28125 72.90625 
L 38.28125 8.296875 
L 54.390625 8.296875 
L 54.390625 0 
L 12.40625 0 
z
" id="DejaVuSans-31"/>
      </defs>
      <g transform="translate(31.096875 189.90831)scale(0.1 -0.1)">
       <use xlink:href="#DejaVuSans-31"/>
       <use x="63.623047" xlink:href="#DejaVuSans-2e"/>
       <use x="95.410156" xlink:href="#DejaVuSans-30"/>
      </g>
     </g>
    </g>
    <g id="ytick_4">
     <g id="line2d_10">
      <g>
       <use style="stroke:#000000;stroke-width:0.8;" x="54" xlink:href="#mfc6ee77a9c" y="153.163636"/>
      </g>
     </g>
     <g id="text_11">
      <!-- 1.5 -->
      <g transform="translate(31.096875 156.962855)scale(0.1 -0.1)">
       <use xlink:href="#DejaVuSans-31"/>
       <use x="63.623047" xlink:href="#DejaVuSans-2e"/>
       <use x="95.410156" xlink:href="#DejaVuSans-35"/>
      </g>
     </g>
    </g>
    <g id="ytick_5">
     <g id="line2d_11">
      <g>
       <use style="stroke:#000000;stroke-width:0.8;" x="54" xlink:href="#mfc6ee77a9c" y="120.218182"/>
      </g>
     </g>
     <g id="text_12">
      <!-- 2.0 -->
      <g transform="translate(31.096875 124.017401)scale(0.1 -0.1)">
       <use xlink:href="#DejaVuSans-32"/>
       <use x="63.623047" xlink:href="#DejaVuSans-2e"/>
       <use x="95.410156" xlink:href="#DejaVuSans-30"/>
      </g>
     </g>
    </g>
    <g id="ytick_6">
     <g id="line2d_12">
      <g>
       <use style="stroke:#000000;stroke-width:0.8;" x="54" xlink:href="#mfc6ee77a9c" y="87.272727"/>
      </g>
     </g>
     <g id="text_13">
      <!-- 2.5 -->
      <g transform="translate(31.096875 91.071946)scale(0.1 -0.1)">
       <use xlink:href="#DejaVuSans-32"/>
       <use x="63.623047" xlink:href="#DejaVuSans-2e"/>
       <use x="95.410156" xlink:href="#DejaVuSans-35"/>
      </g>
     </g>
    </g>
    <g id="ytick_7">
     <g id="line2d_13">
      <g>
       <use style="stroke:#000000;stroke-width:0.8;" x="54" xlink:href="#mfc6ee77a9c" y="54.327273"/>
      </g>
     </g>
     <g id="text_14">
      <!-- 3.0 -->
      <defs>
       <path d="M 40.578125 39.3125 
Q 47.65625 37.796875 51.625 33 
Q 55.609375 28.21875 55.609375 21.1875 
Q 55.609375 10.40625 48.1875 4.484375 
Q 40.765625 -1.421875 27.09375 -1.421875 
Q 22.515625 -1.421875 17.65625 -0.515625 
Q 12.796875 0.390625 7.625 2.203125 
L 7.625 11.71875 
Q 11.71875 9.328125 16.59375 8.109375 
Q 21.484375 6.890625 26.8125 6.890625 
Q 36.078125 6.890625 40.9375 10.546875 
Q 45.796875 14.203125 45.796875 21.1875 
Q 45.796875 27.640625 41.28125 31.265625 
Q 36.765625 34.90625 28.71875 34.90625 
L 20.21875 34.90625 
L 20.21875 43.015625 
L 29.109375 43.015625 
Q 36.375 43.015625 40.234375 45.921875 
Q 44.09375 48.828125 44.09375 54.296875 
Q 44.09375 59.90625 40.109375 62.90625 
Q 36.140625 65.921875 28.71875 65.921875 
Q 24.65625 65.921875 20.015625 65.03125 
Q 15.375 64.15625 9.8125 62.3125 
L 9.8125 71.09375 
Q 15.4375 72.65625 20.34375 73.4375 
Q 25.25 74.21875 29.59375 74.21875 
Q 40.828125 74.21875 47.359375 69.109375 
Q 53.90625 64.015625 53.90625 55.328125 
Q 53.90625 49.265625 50.4375 45.09375 
Q 46.96875 40.921875 40.578125 39.3125 
z
" id="DejaVuSans-33"/>
      </defs>
      <g transform="translate(31.096875 58.126491)scale(0.1 -0.1)">
       <use xlink:href="#DejaVuSans-33"/>
       <use x="63.623047" xlink:href="#DejaVuSans-2e"/>
       <use x="95.410156" xlink:href="#DejaVuSans-30"/>
      </g>
     </g>
    </g>
    <g id="text_15">
     <!-- Bootstrapped density estimate -->
     <defs>
      <path d="M 19.671875 34.8125 
L 19.671875 8.109375 
L 35.5 8.109375 
Q 43.453125 8.109375 47.28125 11.40625 
Q 51.125 14.703125 51.125 21.484375 
Q 51.125 28.328125 47.28125 31.5625 
Q 43.453125 34.8125 35.5 34.8125 
z
M 19.671875 64.796875 
L 19.671875 42.828125 
L 34.28125 42.828125 
Q 41.5 42.828125 45.03125 45.53125 
Q 48.578125 48.25 48.578125 53.8125 
Q 48.578125 59.328125 45.03125 62.0625 
Q 41.5 64.796875 34.28125 64.796875 
z
M 9.8125 72.90625 
L 35.015625 72.90625 
Q 46.296875 72.90625 52.390625 68.21875 
Q 58.5 63.53125 58.5 54.890625 
Q 58.5 48.1875 55.375 44.234375 
Q 52.25 40.28125 46.1875 39.3125 
Q 53.46875 37.75 57.5 32.78125 
Q 61.53125 27.828125 61.53125 20.40625 
Q 61.53125 10.640625 54.890625 5.3125 
Q 48.25 0 35.984375 0 
L 9.8125 0 
z
" id="DejaVuSans-42"/>
     </defs>
     <g transform="translate(25.017187 220.585469)rotate(-90)scale(0.1 -0.1)">
      <use xlink:href="#DejaVuSans-42"/>
      <use x="68.603516" xlink:href="#DejaVuSans-6f"/>
      <use x="129.785156" xlink:href="#DejaVuSans-6f"/>
      <use x="190.966797" xlink:href="#DejaVuSans-74"/>
      <use x="230.175781" xlink:href="#DejaVuSans-73"/>
      <use x="282.275391" xlink:href="#DejaVuSans-74"/>
      <use x="321.484375" xlink:href="#DejaVuSans-72"/>
      <use x="362.597656" xlink:href="#DejaVuSans-61"/>
      <use x="423.876953" xlink:href="#DejaVuSans-70"/>
      <use x="487.353516" xlink:href="#DejaVuSans-70"/>
      <use x="550.830078" xlink:href="#DejaVuSans-65"/>
      <use x="612.353516" xlink:href="#DejaVuSans-64"/>
      <use x="675.830078" xlink:href="#DejaVuSans-20"/>
      <use x="707.617188" xlink:href="#DejaVuSans-64"/>
      <use x="771.09375" xlink:href="#DejaVuSans-65"/>
      <use x="832.617188" xlink:href="#DejaVuSans-6e"/>
      <use x="895.996094" xlink:href="#DejaVuSans-73"/>
      <use x="948.095703" xlink:href="#DejaVuSans-69"/>
      <use x="975.878906" xlink:href="#DejaVuSans-74"/>
      <use x="1015.087891" xlink:href="#DejaVuSans-79"/>
      <use x="1074.267578" xlink:href="#DejaVuSans-20"/>
      <use x="1106.054688" xlink:href="#DejaVuSans-65"/>
      <use x="1167.578125" xlink:href="#DejaVuSans-73"/>
      <use x="1219.677734" xlink:href="#DejaVuSans-74"/>
      <use x="1258.886719" xlink:href="#DejaVuSans-69"/>
      <use x="1286.669922" xlink:href="#DejaVuSans-6d"/>
      <use x="1384.082031" xlink:href="#DejaVuSans-61"/>
      <use x="1445.361328" xlink:href="#DejaVuSans-74"/>
      <use x="1484.570312" xlink:href="#DejaVuSans-65"/>
     </g>
    </g>
   </g>
   <g id="line2d_14">
    <path clip-path="url(#pe2ede91321)" d="M 262.956569 251.891873 
L 263.658668 251.758203 
L 264.126735 251.50962 
L 264.594801 251.061529 
L 265.062867 250.340153 
L 265.530934 249.287951 
L 266.233033 247.071129 
L 267.169165 243.197441 
L 268.105298 238.396249 
L 268.807397 233.316073 
L 269.275464 228.529807 
L 269.977563 218.404297 
L 270.679663 204.465278 
L 271.615795 181.208919 
L 274.892259 94.5466 
L 275.594358 82.368498 
L 276.296458 74.237084 
L 276.998557 68.862119 
L 277.466624 66.338995 
L 277.93469 64.917075 
L 278.168723 64.812144 
L 278.402756 65.234626 
L 278.636789 66.268915 
L 279.104856 70.403465 
L 279.572922 77.383856 
L 280.275021 92.487931 
L 281.211154 118.414965 
L 284.253585 208.290905 
L 284.721651 215.481244 
L 285.189717 220.086074 
L 285.657783 222.859994 
L 287.061982 229.061912 
L 287.764082 233.807883 
L 289.402314 245.462811 
L 290.104413 248.656778 
L 290.572479 250.037421 
L 291.040546 250.928336 
L 291.508612 251.455858 
L 292.210711 251.817588 
L 292.678778 251.89015 
L 292.678778 251.89015 
" style="fill:none;stroke:#1f77b4;stroke-linecap:square;stroke-width:1.5;"/>
   </g>
   <g id="line2d_15">
    <path clip-path="url(#pe2ede91321)" d="M 191.601615 251.953046 
L 194.138806 251.806237 
L 195.661121 251.523127 
L 197.183436 251.016548 
L 198.705751 250.282792 
L 200.735504 249.051861 
L 202.257819 247.939971 
L 203.780134 246.518084 
L 205.302449 244.697613 
L 207.839641 241.436777 
L 209.361956 239.896107 
L 211.391709 238.043211 
L 212.406585 236.823895 
L 213.421462 235.232972 
L 214.436339 233.24918 
L 215.958654 229.626953 
L 216.97353 226.781124 
L 217.988407 223.4201 
L 219.003283 219.2144 
L 220.01816 213.74649 
L 221.033037 206.683298 
L 222.047913 197.993683 
L 225.599981 164.841068 
L 226.10742 161.597091 
L 226.614858 159.080637 
L 227.122296 157.334485 
L 227.629735 156.360392 
L 228.137173 156.120889 
L 228.644611 156.544227 
L 229.152049 157.531749 
L 230.166926 160.724029 
L 233.211556 172.064079 
L 234.226432 174.837399 
L 236.256186 180.046899 
L 237.271062 183.652758 
L 238.285939 188.52867 
L 239.300816 194.750996 
L 240.82313 205.982798 
L 243.360322 225.404928 
L 244.375199 232.00558 
L 245.390075 237.522648 
L 246.404952 241.903142 
L 247.419828 245.21972 
L 248.434705 247.621709 
L 249.449582 249.288595 
L 250.464458 250.396295 
L 251.479335 251.098781 
L 252.494211 251.521381 
L 254.016526 251.833656 
L 256.04628 251.951682 
L 256.04628 251.951682 
" style="fill:none;stroke:#ff7f0e;stroke-linecap:square;stroke-width:1.5;"/>
   </g>
   <g id="line2d_16">
    <path clip-path="url(#pe2ede91321)" d="M -1 245.68016 
L 9.321642 245.015223 
L 25.416025 244.045655 
L 33.463216 243.326472 
L 41.510407 242.342448 
L 49.557599 241.124466 
L 62.969584 238.98935 
L 68.334378 238.284259 
L 73.699172 237.751256 
L 79.063967 237.423863 
L 84.428761 237.310686 
L 89.793555 237.396798 
L 97.840746 237.828303 
L 105.887937 238.512244 
L 116.617526 239.679931 
L 124.664717 240.736471 
L 132.711908 241.976134 
L 143.441497 243.897425 
L 162.218276 247.394363 
L 170.265468 248.642484 
L 178.312659 249.646637 
L 186.35985 250.414575 
L 194.407041 250.981751 
L 205.13663 251.490229 
L 215.866218 251.781625 
L 231.960601 251.957217 
L 245.372586 251.987712 
L 245.372586 251.987712 
" style="fill:none;stroke:#2ca02c;stroke-linecap:square;stroke-width:1.5;"/>
   </g>
   <g id="line2d_17">
    <path clip-path="url(#pe2ede91321)" d="M 80.894537 251.957453 
L 85.559327 251.843445 
L 88.358201 251.576213 
L 91.157074 251.031241 
L 93.02299 250.473591 
L 95.821864 249.382238 
L 99.553695 247.856346 
L 101.419611 247.313878 
L 103.285527 247.029518 
L 105.151443 246.99364 
L 108.883274 247.145657 
L 110.74919 246.919972 
L 111.682148 246.644332 
L 112.615106 246.239615 
L 113.548064 245.700191 
L 115.413979 244.237213 
L 117.279895 242.369068 
L 127.542432 230.94758 
L 129.408348 228.599754 
L 131.274264 225.973535 
L 133.140179 223.059564 
L 135.939053 218.208521 
L 142.469758 206.395613 
L 143.402716 205.04377 
L 144.335674 203.892741 
L 145.268632 202.982399 
L 146.20159 202.347709 
L 147.134548 202.016269 
L 148.067506 202.006238 
L 149.000464 202.324855 
L 149.933421 202.967685 
L 150.866379 203.918659 
L 151.799337 205.150915 
L 153.665253 208.307629 
L 155.531169 212.077318 
L 159.263 219.898785 
L 161.128916 223.305188 
L 162.994832 226.111861 
L 164.860748 228.272554 
L 166.726663 229.862932 
L 168.592579 231.060659 
L 172.324411 233.23108 
L 174.190327 234.626382 
L 176.056242 236.375328 
L 177.922158 238.455686 
L 184.452863 246.346346 
L 186.318779 248.119868 
L 188.184695 249.503471 
L 190.050611 250.500141 
L 191.916527 251.161622 
L 193.782442 251.565105 
L 196.581316 251.857581 
L 199.38019 251.950498 
L 199.38019 251.950498 
" style="fill:none;stroke:#d62728;stroke-linecap:square;stroke-width:1.5;"/>
   </g>
   <g id="line2d_18">
    <path clip-path="url(#pe2ede91321)" d="M 289.004507 251.948136 
L 292.522375 251.836073 
L 294.633096 251.576503 
L 296.040243 251.242528 
L 297.44739 250.706409 
L 298.854537 249.889904 
L 300.261684 248.709437 
L 301.668831 247.089835 
L 303.075978 244.982891 
L 304.483125 242.387409 
L 305.890272 239.365067 
L 311.51886 226.289953 
L 312.926007 223.76672 
L 314.333154 221.809839 
L 315.740302 220.413417 
L 317.147449 219.48442 
L 318.554596 218.86078 
L 320.665316 218.04173 
L 322.072463 217.248309 
L 323.47961 216.015558 
L 324.886757 214.182886 
L 326.293904 211.66101 
L 327.701052 208.46178 
L 329.811772 202.734375 
L 331.922493 196.857783 
L 333.32964 193.589874 
L 334.033213 192.32444 
L 334.736787 191.371919 
L 335.44036 190.771837 
L 336.143934 190.55229 
L 336.847507 190.728436 
L 337.551081 191.301772 
L 338.254654 192.260257 
L 338.958228 193.579269 
L 340.365375 197.148167 
L 341.772522 201.636895 
L 347.40111 221.094576 
L 348.808257 225.084196 
L 350.215404 228.542637 
L 351.622551 231.483141 
L 353.029699 233.945871 
L 354.436846 235.993054 
L 355.843993 237.709201 
L 357.954713 239.889879 
L 367.101169 248.619778 
L 368.508316 249.630755 
L 369.915463 250.42652 
L 371.32261 251.011668 
L 372.729757 251.413509 
L 374.840478 251.758349 
L 377.654772 251.929977 
L 378.358346 251.943259 
L 378.358346 251.943259 
" style="fill:none;stroke:#9467bd;stroke-linecap:square;stroke-width:1.5;"/>
   </g>
   <g id="line2d_19">
    <path clip-path="url(#pe2ede91321)" d="M 219.289499 251.934989 
L 221.515628 251.874886 
L 223.741756 251.586546 
L 225.411352 251.149163 
L 227.63748 250.262489 
L 230.976673 248.608219 
L 233.202801 247.308199 
L 234.872397 246.047703 
L 236.541993 244.411093 
L 237.655057 243.033003 
L 238.768121 241.317241 
L 239.881185 239.120061 
L 240.99425 236.284344 
L 242.107314 232.702225 
L 243.220378 228.384579 
L 245.446506 218.37217 
L 247.116102 211.019586 
L 248.785698 204.799083 
L 253.237955 189.901886 
L 257.133679 174.093517 
L 258.246743 171.050177 
L 258.803275 170.024987 
L 259.359807 169.360627 
L 259.916339 169.064705 
L 260.472871 169.134985 
L 261.029404 169.56162 
L 261.585936 170.329485 
L 262.142468 171.420262 
L 263.255532 174.490645 
L 264.368596 178.611007 
L 265.48166 183.618847 
L 267.151256 192.411119 
L 272.716577 223.543611 
L 273.829641 228.278219 
L 274.942705 232.192797 
L 276.055769 235.379919 
L 277.725365 239.224745 
L 279.951493 243.568919 
L 281.62109 246.480068 
L 282.734154 248.136403 
L 283.847218 249.473264 
L 284.960282 250.463078 
L 286.073346 251.132921 
L 287.18641 251.546448 
L 288.856006 251.846753 
L 289.96907 251.920992 
L 289.96907 251.920992 
" style="fill:none;stroke:#8c564b;stroke-linecap:square;stroke-width:1.5;"/>
   </g>
   <g id="line2d_20">
    <path clip-path="url(#pe2ede91321)" d="M 223.493586 251.86687 
L 224.314629 251.674927 
L 224.861991 251.364889 
L 225.409353 250.815001 
L 225.956715 249.918331 
L 226.504077 248.564327 
L 227.051439 246.669941 
L 227.872482 242.799735 
L 229.514568 233.05081 
L 230.882973 225.651687 
L 231.977697 219.42419 
L 232.79874 212.897896 
L 233.619783 204.115599 
L 235.261869 182.676408 
L 236.903955 162.589038 
L 238.546041 142.381993 
L 240.461808 117.749866 
L 241.282851 109.935503 
L 241.830212 106.261637 
L 242.377574 103.878481 
L 242.651255 103.175893 
L 242.924936 102.805968 
L 243.198617 102.779009 
L 243.472298 103.110147 
L 243.745979 103.818788 
L 244.293341 106.458898 
L 244.840703 110.875245 
L 245.388065 117.180751 
L 246.209108 130.082067 
L 247.303832 152.175199 
L 249.49328 198.264595 
L 250.588004 216.409935 
L 251.409047 227.20062 
L 252.23009 235.653696 
L 253.051133 241.917423 
L 253.872176 246.241185 
L 254.419538 248.220811 
L 254.9669 249.621726 
L 255.514262 250.569151 
L 256.061624 251.178948 
L 256.882667 251.671063 
L 257.70371 251.861121 
L 258.251072 251.883421 
L 258.251072 251.883421 
" style="fill:none;stroke:#e377c2;stroke-linecap:square;stroke-width:1.5;"/>
   </g>
   <g id="line2d_21">
    <path clip-path="url(#pe2ede91321)" d="M 241.646093 251.789614 
L 242.181784 251.643719 
L 242.538911 251.342046 
L 242.896038 250.783732 
L 243.253166 249.83746 
L 243.610293 248.329867 
L 243.96742 246.058297 
L 244.503111 240.773665 
L 245.038801 232.797863 
L 245.753056 218.019167 
L 248.074382 165.079048 
L 248.9672 152.448845 
L 249.860018 140.260639 
L 250.574272 126.976931 
L 251.288527 108.777507 
L 253.609853 42.947415 
L 253.96698 38.322193 
L 254.324108 36.276809 
L 254.502671 36.254387 
L 254.681235 36.904678 
L 255.038362 40.211835 
L 255.395489 46.120557 
L 255.93118 59.396878 
L 256.823998 89.490921 
L 258.43107 144.555763 
L 261.288087 231.670784 
L 261.823778 240.801206 
L 262.359469 246.474133 
L 262.895159 249.564601 
L 263.252287 250.674118 
L 263.609414 251.306672 
L 263.966541 251.636142 
L 264.323668 251.773653 
L 264.323668 251.773653 
" style="fill:none;stroke:#7f7f7f;stroke-linecap:square;stroke-width:1.5;"/>
   </g>
   <g id="line2d_22">
    <path clip-path="url(#pe2ede91321)" d="M 217.839347 251.963747 
L 223.381806 251.89467 
L 227.815774 251.658201 
L 234.466725 251.002459 
L 238.900693 250.651081 
L 252.202595 249.906868 
L 255.528071 249.365741 
L 257.745055 248.828117 
L 259.962038 248.085106 
L 262.179022 247.072227 
L 264.396006 245.72464 
L 266.61299 243.989005 
L 268.829973 241.842658 
L 271.046957 239.31711 
L 274.372433 235.060926 
L 277.697909 230.788178 
L 279.914892 228.235317 
L 282.131876 226.020363 
L 285.457352 223.161006 
L 288.782827 220.253806 
L 290.999811 217.962696 
L 293.216795 215.330414 
L 297.650762 209.801507 
L 298.759254 208.623056 
L 299.867746 207.634582 
L 300.976238 206.889624 
L 302.08473 206.435738 
L 303.193222 206.310869 
L 304.301714 206.54001 
L 305.410205 207.132546 
L 306.518697 208.080686 
L 307.627189 209.359331 
L 308.735681 210.927538 
L 310.952665 214.709283 
L 316.495124 225.064504 
L 318.712108 228.625607 
L 320.929092 231.659737 
L 323.146076 234.19492 
L 325.363059 236.286127 
L 327.580043 237.995534 
L 329.797027 239.413408 
L 336.447978 243.325069 
L 339.773454 245.664892 
L 343.098929 248.009098 
L 345.315913 249.335584 
L 347.532897 250.36268 
L 349.749881 251.077058 
L 351.966864 251.523792 
L 355.29234 251.849704 
L 358.617816 251.954 
L 358.617816 251.954 
" style="fill:none;stroke:#bcbd22;stroke-linecap:square;stroke-width:1.5;"/>
   </g>
   <g id="line2d_23">
    <path clip-path="url(#pe2ede91321)" d="M 213.024406 251.925058 
L 214.418681 251.768437 
L 215.464386 251.369829 
L 216.161523 250.85582 
L 216.85866 250.043774 
L 217.555797 248.840047 
L 218.252934 247.155519 
L 218.950071 244.915655 
L 219.647209 242.068164 
L 220.692914 236.617961 
L 221.73862 229.860641 
L 223.481462 216.794585 
L 226.618579 191.625362 
L 228.012853 178.232369 
L 230.801402 150.332288 
L 232.544244 135.599402 
L 233.58995 128.319491 
L 234.287087 124.704622 
L 234.635655 123.434709 
L 234.984224 122.597086 
L 235.332792 122.239488 
L 235.681361 122.39963 
L 236.029929 123.10313 
L 236.378498 124.362514 
L 237.075635 128.534762 
L 237.772772 134.775611 
L 238.818478 147.367495 
L 240.212752 168.06849 
L 242.652732 204.952469 
L 243.698437 217.563677 
L 244.744143 227.09395 
L 245.44128 231.685669 
L 246.138417 235.023135 
L 246.835554 237.367323 
L 247.532691 239.044709 
L 252.761219 249.336045 
L 253.458356 250.279346 
L 254.155493 250.960639 
L 254.85263 251.413463 
L 255.898336 251.778693 
L 257.29261 251.92558 
L 257.29261 251.92558 
" style="fill:none;stroke:#17becf;stroke-linecap:square;stroke-width:1.5;"/>
   </g>
   <g id="patch_3">
    <path d="M 54 252 
L 54 34.56 
" style="fill:none;stroke:#000000;stroke-linecap:square;stroke-linejoin:miter;stroke-width:0.8;"/>
   </g>
   <g id="patch_4">
    <path d="M 388.8 252 
L 388.8 34.56 
" style="fill:none;stroke:#000000;stroke-linecap:square;stroke-linejoin:miter;stroke-width:0.8;"/>
   </g>
   <g id="patch_5">
    <path d="M 54 252 
L 388.8 252 
" style="fill:none;stroke:#000000;stroke-linecap:square;stroke-linejoin:miter;stroke-width:0.8;"/>
   </g>
   <g id="patch_6">
    <path d="M 54 34.56 
L 388.8 34.56 
" style="fill:none;stroke:#000000;stroke-linecap:square;stroke-linejoin:miter;stroke-width:0.8;"/>
   </g>
  </g>
 </g>
 <defs>
  <clipPath id="pe2ede91321">
   <rect height="217.44" width="334.8" x="54" y="34.56"/>
  </clipPath>
 </defs>
</svg>
