<?xml version="1.0" encoding="utf-8" standalone="no"?>
<!DOCTYPE svg PUBLIC "-//W3C//DTD SVG 1.1//EN"
  "http://www.w3.org/Graphics/SVG/1.1/DTD/svg11.dtd">
<!-- Created with matplotlib (http://matplotlib.org/) -->
<svg height="288pt" version="1.1" viewBox="0 0 432 288" width="432pt" xmlns="http://www.w3.org/2000/svg" xmlns:xlink="http://www.w3.org/1999/xlink">
 <defs>
  <style type="text/css">
*{stroke-linecap:butt;stroke-linejoin:round;}
  </style>
 </defs>
 <g id="figure_1">
  <g id="patch_1">
   <path d="M 0 288 
L 432 288 
L 432 0 
L 0 0 
z
" style="fill:#ffffff;"/>
  </g>
  <g id="axes_1">
   <g id="patch_2">
    <path d="M 54 252 
L 388.8 252 
L 388.8 34.56 
L 54 34.56 
z
" style="fill:#ffffff;"/>
   </g>
   <g id="matplotlib.axis_1">
    <g id="xtick_1">
     <g id="line2d_1">
      <defs>
       <path d="M 0 0 
L 0 3.5 
" id="mdd24c1ed19" style="stroke:#000000;stroke-width:0.8;"/>
      </defs>
      <g>
       <use style="stroke:#000000;stroke-width:0.8;" x="87.48" xlink:href="#mdd24c1ed19" y="252"/>
      </g>
     </g>
     <g id="text_1">
      <!-- 30.0 -->
      <defs>
       <path d="M 40.578125 39.3125 
Q 47.65625 37.796875 51.625 33 
Q 55.609375 28.21875 55.609375 21.1875 
Q 55.609375 10.40625 48.1875 4.484375 
Q 40.765625 -1.421875 27.09375 -1.421875 
Q 22.515625 -1.421875 17.65625 -0.515625 
Q 12.796875 0.390625 7.625 2.203125 
L 7.625 11.71875 
Q 11.71875 9.328125 16.59375 8.109375 
Q 21.484375 6.890625 26.8125 6.890625 
Q 36.078125 6.890625 40.9375 10.546875 
Q 45.796875 14.203125 45.796875 21.1875 
Q 45.796875 27.640625 41.28125 31.265625 
Q 36.765625 34.90625 28.71875 34.90625 
L 20.21875 34.90625 
L 20.21875 43.015625 
L 29.109375 43.015625 
Q 36.375 43.015625 40.234375 45.921875 
Q 44.09375 48.828125 44.09375 54.296875 
Q 44.09375 59.90625 40.109375 62.90625 
Q 36.140625 65.921875 28.71875 65.921875 
Q 24.65625 65.921875 20.015625 65.03125 
Q 15.375 64.15625 9.8125 62.3125 
L 9.8125 71.09375 
Q 15.4375 72.65625 20.34375 73.4375 
Q 25.25 74.21875 29.59375 74.21875 
Q 40.828125 74.21875 47.359375 69.109375 
Q 53.90625 64.015625 53.90625 55.328125 
Q 53.90625 49.265625 50.4375 45.09375 
Q 46.96875 40.921875 40.578125 39.3125 
z
" id="DejaVuSans-33"/>
       <path d="M 31.78125 66.40625 
Q 24.171875 66.40625 20.328125 58.90625 
Q 16.5 51.421875 16.5 36.375 
Q 16.5 21.390625 20.328125 13.890625 
Q 24.171875 6.390625 31.78125 6.390625 
Q 39.453125 6.390625 43.28125 13.890625 
Q 47.125 21.390625 47.125 36.375 
Q 47.125 51.421875 43.28125 58.90625 
Q 39.453125 66.40625 31.78125 66.40625 
z
M 31.78125 74.21875 
Q 44.046875 74.21875 50.515625 64.515625 
Q 56.984375 54.828125 56.984375 36.375 
Q 56.984375 17.96875 50.515625 8.265625 
Q 44.046875 -1.421875 31.78125 -1.421875 
Q 19.53125 -1.421875 13.0625 8.265625 
Q 6.59375 17.96875 6.59375 36.375 
Q 6.59375 54.828125 13.0625 64.515625 
Q 19.53125 74.21875 31.78125 74.21875 
z
" id="DejaVuSans-30"/>
       <path d="M 10.6875 12.40625 
L 21 12.40625 
L 21 0 
L 10.6875 0 
z
" id="DejaVuSans-2e"/>
      </defs>
      <g transform="translate(76.347188 266.598437)scale(0.1 -0.1)">
       <use xlink:href="#DejaVuSans-33"/>
       <use x="63.623047" xlink:href="#DejaVuSans-30"/>
       <use x="127.246094" xlink:href="#DejaVuSans-2e"/>
       <use x="159.033203" xlink:href="#DejaVuSans-30"/>
      </g>
     </g>
    </g>
    <g id="xtick_2">
     <g id="line2d_2">
      <g>
       <use style="stroke:#000000;stroke-width:0.8;" x="154.44" xlink:href="#mdd24c1ed19" y="252"/>
      </g>
     </g>
     <g id="text_2">
      <!-- 35.0 -->
      <defs>
       <path d="M 10.796875 72.90625 
L 49.515625 72.90625 
L 49.515625 64.59375 
L 19.828125 64.59375 
L 19.828125 46.734375 
Q 21.96875 47.46875 24.109375 47.828125 
Q 26.265625 48.1875 28.421875 48.1875 
Q 40.625 48.1875 47.75 41.5 
Q 54.890625 34.8125 54.890625 23.390625 
Q 54.890625 11.625 47.5625 5.09375 
Q 40.234375 -1.421875 26.90625 -1.421875 
Q 22.3125 -1.421875 17.546875 -0.640625 
Q 12.796875 0.140625 7.71875 1.703125 
L 7.71875 11.625 
Q 12.109375 9.234375 16.796875 8.0625 
Q 21.484375 6.890625 26.703125 6.890625 
Q 35.15625 6.890625 40.078125 11.328125 
Q 45.015625 15.765625 45.015625 23.390625 
Q 45.015625 31 40.078125 35.4375 
Q 35.15625 39.890625 26.703125 39.890625 
Q 22.75 39.890625 18.8125 39.015625 
Q 14.890625 38.140625 10.796875 36.28125 
z
" id="DejaVuSans-35"/>
      </defs>
      <g transform="translate(143.307187 266.598437)scale(0.1 -0.1)">
       <use xlink:href="#DejaVuSans-33"/>
       <use x="63.623047" xlink:href="#DejaVuSans-35"/>
       <use x="127.246094" xlink:href="#DejaVuSans-2e"/>
       <use x="159.033203" xlink:href="#DejaVuSans-30"/>
      </g>
     </g>
    </g>
    <g id="xtick_3">
     <g id="line2d_3">
      <g>
       <use style="stroke:#000000;stroke-width:0.8;" x="221.4" xlink:href="#mdd24c1ed19" y="252"/>
      </g>
     </g>
     <g id="text_3">
      <!-- 40.0 -->
      <defs>
       <path d="M 37.796875 64.3125 
L 12.890625 25.390625 
L 37.796875 25.390625 
z
M 35.203125 72.90625 
L 47.609375 72.90625 
L 47.609375 25.390625 
L 58.015625 25.390625 
L 58.015625 17.1875 
L 47.609375 17.1875 
L 47.609375 0 
L 37.796875 0 
L 37.796875 17.1875 
L 4.890625 17.1875 
L 4.890625 26.703125 
z
" id="DejaVuSans-34"/>
      </defs>
      <g transform="translate(210.267188 266.598437)scale(0.1 -0.1)">
       <use xlink:href="#DejaVuSans-34"/>
       <use x="63.623047" xlink:href="#DejaVuSans-30"/>
       <use x="127.246094" xlink:href="#DejaVuSans-2e"/>
       <use x="159.033203" xlink:href="#DejaVuSans-30"/>
      </g>
     </g>
    </g>
    <g id="xtick_4">
     <g id="line2d_4">
      <g>
       <use style="stroke:#000000;stroke-width:0.8;" x="288.36" xlink:href="#mdd24c1ed19" y="252"/>
      </g>
     </g>
     <g id="text_4">
      <!-- 45.0 -->
      <g transform="translate(277.227188 266.598437)scale(0.1 -0.1)">
       <use xlink:href="#DejaVuSans-34"/>
       <use x="63.623047" xlink:href="#DejaVuSans-35"/>
       <use x="127.246094" xlink:href="#DejaVuSans-2e"/>
       <use x="159.033203" xlink:href="#DejaVuSans-30"/>
      </g>
     </g>
    </g>
    <g id="xtick_5">
     <g id="line2d_5">
      <g>
       <use style="stroke:#000000;stroke-width:0.8;" x="355.32" xlink:href="#mdd24c1ed19" y="252"/>
      </g>
     </g>
     <g id="text_5">
      <!-- 50.0 -->
      <g transform="translate(344.187188 266.598437)scale(0.1 -0.1)">
       <use xlink:href="#DejaVuSans-35"/>
       <use x="63.623047" xlink:href="#DejaVuSans-30"/>
       <use x="127.246094" xlink:href="#DejaVuSans-2e"/>
       <use x="159.033203" xlink:href="#DejaVuSans-30"/>
      </g>
     </g>
    </g>
    <g id="text_6">
     <!-- Price -->
     <defs>
      <path d="M 19.671875 64.796875 
L 19.671875 37.40625 
L 32.078125 37.40625 
Q 38.96875 37.40625 42.71875 40.96875 
Q 46.484375 44.53125 46.484375 51.125 
Q 46.484375 57.671875 42.71875 61.234375 
Q 38.96875 64.796875 32.078125 64.796875 
z
M 9.8125 72.90625 
L 32.078125 72.90625 
Q 44.34375 72.90625 50.609375 67.359375 
Q 56.890625 61.8125 56.890625 51.125 
Q 56.890625 40.328125 50.609375 34.8125 
Q 44.34375 29.296875 32.078125 29.296875 
L 19.671875 29.296875 
L 19.671875 0 
L 9.8125 0 
z
" id="DejaVuSans-50"/>
      <path d="M 41.109375 46.296875 
Q 39.59375 47.171875 37.8125 47.578125 
Q 36.03125 48 33.890625 48 
Q 26.265625 48 22.1875 43.046875 
Q 18.109375 38.09375 18.109375 28.8125 
L 18.109375 0 
L 9.078125 0 
L 9.078125 54.6875 
L 18.109375 54.6875 
L 18.109375 46.1875 
Q 20.953125 51.171875 25.484375 53.578125 
Q 30.03125 56 36.53125 56 
Q 37.453125 56 38.578125 55.875 
Q 39.703125 55.765625 41.0625 55.515625 
z
" id="DejaVuSans-72"/>
      <path d="M 9.421875 54.6875 
L 18.40625 54.6875 
L 18.40625 0 
L 9.421875 0 
z
M 9.421875 75.984375 
L 18.40625 75.984375 
L 18.40625 64.59375 
L 9.421875 64.59375 
z
" id="DejaVuSans-69"/>
      <path d="M 48.78125 52.59375 
L 48.78125 44.1875 
Q 44.96875 46.296875 41.140625 47.34375 
Q 37.3125 48.390625 33.40625 48.390625 
Q 24.65625 48.390625 19.8125 42.84375 
Q 14.984375 37.3125 14.984375 27.296875 
Q 14.984375 17.28125 19.8125 11.734375 
Q 24.65625 6.203125 33.40625 6.203125 
Q 37.3125 6.203125 41.140625 7.25 
Q 44.96875 8.296875 48.78125 10.40625 
L 48.78125 2.09375 
Q 45.015625 0.34375 40.984375 -0.53125 
Q 36.96875 -1.421875 32.421875 -1.421875 
Q 20.0625 -1.421875 12.78125 6.34375 
Q 5.515625 14.109375 5.515625 27.296875 
Q 5.515625 40.671875 12.859375 48.328125 
Q 20.21875 56 33.015625 56 
Q 37.15625 56 41.109375 55.140625 
Q 45.0625 54.296875 48.78125 52.59375 
z
" id="DejaVuSans-63"/>
      <path d="M 56.203125 29.59375 
L 56.203125 25.203125 
L 14.890625 25.203125 
Q 15.484375 15.921875 20.484375 11.0625 
Q 25.484375 6.203125 34.421875 6.203125 
Q 39.59375 6.203125 44.453125 7.46875 
Q 49.3125 8.734375 54.109375 11.28125 
L 54.109375 2.78125 
Q 49.265625 0.734375 44.1875 -0.34375 
Q 39.109375 -1.421875 33.890625 -1.421875 
Q 20.796875 -1.421875 13.15625 6.1875 
Q 5.515625 13.8125 5.515625 26.8125 
Q 5.515625 40.234375 12.765625 48.109375 
Q 20.015625 56 32.328125 56 
Q 43.359375 56 49.78125 48.890625 
Q 56.203125 41.796875 56.203125 29.59375 
z
M 47.21875 32.234375 
Q 47.125 39.59375 43.09375 43.984375 
Q 39.0625 48.390625 32.421875 48.390625 
Q 24.90625 48.390625 20.390625 44.140625 
Q 15.875 39.890625 15.1875 32.171875 
z
" id="DejaVuSans-65"/>
     </defs>
     <g transform="translate(209.115625 280.276563)scale(0.1 -0.1)">
      <use xlink:href="#DejaVuSans-50"/>
      <use x="60.287109" xlink:href="#DejaVuSans-72"/>
      <use x="101.400391" xlink:href="#DejaVuSans-69"/>
      <use x="129.183594" xlink:href="#DejaVuSans-63"/>
      <use x="184.164062" xlink:href="#DejaVuSans-65"/>
     </g>
    </g>
   </g>
   <g id="matplotlib.axis_2">
    <g id="ytick_1">
     <g id="line2d_6">
      <defs>
       <path d="M 0 0 
L -3.5 0 
" id="m9508583772" style="stroke:#000000;stroke-width:0.8;"/>
      </defs>
      <g>
       <use style="stroke:#000000;stroke-width:0.8;" x="54" xlink:href="#m9508583772" y="242.41225"/>
      </g>
     </g>
     <g id="text_7">
      <!-- 0.0 -->
      <g transform="translate(31.096875 246.211469)scale(0.1 -0.1)">
       <use xlink:href="#DejaVuSans-30"/>
       <use x="63.623047" xlink:href="#DejaVuSans-2e"/>
       <use x="95.410156" xlink:href="#DejaVuSans-30"/>
      </g>
     </g>
    </g>
    <g id="ytick_2">
     <g id="line2d_7">
      <g>
       <use style="stroke:#000000;stroke-width:0.8;" x="54" xlink:href="#m9508583772" y="202.793033"/>
      </g>
     </g>
     <g id="text_8">
      <!-- 0.2 -->
      <defs>
       <path d="M 19.1875 8.296875 
L 53.609375 8.296875 
L 53.609375 0 
L 7.328125 0 
L 7.328125 8.296875 
Q 12.9375 14.109375 22.625 23.890625 
Q 32.328125 33.6875 34.8125 36.53125 
Q 39.546875 41.84375 41.421875 45.53125 
Q 43.3125 49.21875 43.3125 52.78125 
Q 43.3125 58.59375 39.234375 62.25 
Q 35.15625 65.921875 28.609375 65.921875 
Q 23.96875 65.921875 18.8125 64.3125 
Q 13.671875 62.703125 7.8125 59.421875 
L 7.8125 69.390625 
Q 13.765625 71.78125 18.9375 73 
Q 24.125 74.21875 28.421875 74.21875 
Q 39.75 74.21875 46.484375 68.546875 
Q 53.21875 62.890625 53.21875 53.421875 
Q 53.21875 48.921875 51.53125 44.890625 
Q 49.859375 40.875 45.40625 35.40625 
Q 44.1875 33.984375 37.640625 27.21875 
Q 31.109375 20.453125 19.1875 8.296875 
z
" id="DejaVuSans-32"/>
      </defs>
      <g transform="translate(31.096875 206.592252)scale(0.1 -0.1)">
       <use xlink:href="#DejaVuSans-30"/>
       <use x="63.623047" xlink:href="#DejaVuSans-2e"/>
       <use x="95.410156" xlink:href="#DejaVuSans-32"/>
      </g>
     </g>
    </g>
    <g id="ytick_3">
     <g id="line2d_8">
      <g>
       <use style="stroke:#000000;stroke-width:0.8;" x="54" xlink:href="#m9508583772" y="163.173816"/>
      </g>
     </g>
     <g id="text_9">
      <!-- 0.4 -->
      <g transform="translate(31.096875 166.973035)scale(0.1 -0.1)">
       <use xlink:href="#DejaVuSans-30"/>
       <use x="63.623047" xlink:href="#DejaVuSans-2e"/>
       <use x="95.410156" xlink:href="#DejaVuSans-34"/>
      </g>
     </g>
    </g>
    <g id="ytick_4">
     <g id="line2d_9">
      <g>
       <use style="stroke:#000000;stroke-width:0.8;" x="54" xlink:href="#m9508583772" y="123.554599"/>
      </g>
     </g>
     <g id="text_10">
      <!-- 0.6 -->
      <defs>
       <path d="M 33.015625 40.375 
Q 26.375 40.375 22.484375 35.828125 
Q 18.609375 31.296875 18.609375 23.390625 
Q 18.609375 15.53125 22.484375 10.953125 
Q 26.375 6.390625 33.015625 6.390625 
Q 39.65625 6.390625 43.53125 10.953125 
Q 47.40625 15.53125 47.40625 23.390625 
Q 47.40625 31.296875 43.53125 35.828125 
Q 39.65625 40.375 33.015625 40.375 
z
M 52.59375 71.296875 
L 52.59375 62.3125 
Q 48.875 64.0625 45.09375 64.984375 
Q 41.3125 65.921875 37.59375 65.921875 
Q 27.828125 65.921875 22.671875 59.328125 
Q 17.53125 52.734375 16.796875 39.40625 
Q 19.671875 43.65625 24.015625 45.921875 
Q 28.375 48.1875 33.59375 48.1875 
Q 44.578125 48.1875 50.953125 41.515625 
Q 57.328125 34.859375 57.328125 23.390625 
Q 57.328125 12.15625 50.6875 5.359375 
Q 44.046875 -1.421875 33.015625 -1.421875 
Q 20.359375 -1.421875 13.671875 8.265625 
Q 6.984375 17.96875 6.984375 36.375 
Q 6.984375 53.65625 15.1875 63.9375 
Q 23.390625 74.21875 37.203125 74.21875 
Q 40.921875 74.21875 44.703125 73.484375 
Q 48.484375 72.75 52.59375 71.296875 
z
" id="DejaVuSans-36"/>
      </defs>
      <g transform="translate(31.096875 127.353818)scale(0.1 -0.1)">
       <use xlink:href="#DejaVuSans-30"/>
       <use x="63.623047" xlink:href="#DejaVuSans-2e"/>
       <use x="95.410156" xlink:href="#DejaVuSans-36"/>
      </g>
     </g>
    </g>
    <g id="ytick_5">
     <g id="line2d_10">
      <g>
       <use style="stroke:#000000;stroke-width:0.8;" x="54" xlink:href="#m9508583772" y="83.935382"/>
      </g>
     </g>
     <g id="text_11">
      <!-- 0.8 -->
      <defs>
       <path d="M 31.78125 34.625 
Q 24.75 34.625 20.71875 30.859375 
Q 16.703125 27.09375 16.703125 20.515625 
Q 16.703125 13.921875 20.71875 10.15625 
Q 24.75 6.390625 31.78125 6.390625 
Q 38.8125 6.390625 42.859375 10.171875 
Q 46.921875 13.96875 46.921875 20.515625 
Q 46.921875 27.09375 42.890625 30.859375 
Q 38.875 34.625 31.78125 34.625 
z
M 21.921875 38.8125 
Q 15.578125 40.375 12.03125 44.71875 
Q 8.5 49.078125 8.5 55.328125 
Q 8.5 64.0625 14.71875 69.140625 
Q 20.953125 74.21875 31.78125 74.21875 
Q 42.671875 74.21875 48.875 69.140625 
Q 55.078125 64.0625 55.078125 55.328125 
Q 55.078125 49.078125 51.53125 44.71875 
Q 48 40.375 41.703125 38.8125 
Q 48.828125 37.15625 52.796875 32.3125 
Q 56.78125 27.484375 56.78125 20.515625 
Q 56.78125 9.90625 50.3125 4.234375 
Q 43.84375 -1.421875 31.78125 -1.421875 
Q 19.734375 -1.421875 13.25 4.234375 
Q 6.78125 9.90625 6.78125 20.515625 
Q 6.78125 27.484375 10.78125 32.3125 
Q 14.796875 37.15625 21.921875 38.8125 
z
M 18.3125 54.390625 
Q 18.3125 48.734375 21.84375 45.5625 
Q 25.390625 42.390625 31.78125 42.390625 
Q 38.140625 42.390625 41.71875 45.5625 
Q 45.3125 48.734375 45.3125 54.390625 
Q 45.3125 60.0625 41.71875 63.234375 
Q 38.140625 66.40625 31.78125 66.40625 
Q 25.390625 66.40625 21.84375 63.234375 
Q 18.3125 60.0625 18.3125 54.390625 
z
" id="DejaVuSans-38"/>
      </defs>
      <g transform="translate(31.096875 87.734601)scale(0.1 -0.1)">
       <use xlink:href="#DejaVuSans-30"/>
       <use x="63.623047" xlink:href="#DejaVuSans-2e"/>
       <use x="95.410156" xlink:href="#DejaVuSans-38"/>
      </g>
     </g>
    </g>
    <g id="ytick_6">
     <g id="line2d_11">
      <g>
       <use style="stroke:#000000;stroke-width:0.8;" x="54" xlink:href="#m9508583772" y="44.316165"/>
      </g>
     </g>
     <g id="text_12">
      <!-- 1.0 -->
      <defs>
       <path d="M 12.40625 8.296875 
L 28.515625 8.296875 
L 28.515625 63.921875 
L 10.984375 60.40625 
L 10.984375 69.390625 
L 28.421875 72.90625 
L 38.28125 72.90625 
L 38.28125 8.296875 
L 54.390625 8.296875 
L 54.390625 0 
L 12.40625 0 
z
" id="DejaVuSans-31"/>
      </defs>
      <g transform="translate(31.096875 48.115384)scale(0.1 -0.1)">
       <use xlink:href="#DejaVuSans-31"/>
       <use x="63.623047" xlink:href="#DejaVuSans-2e"/>
       <use x="95.410156" xlink:href="#DejaVuSans-30"/>
      </g>
     </g>
    </g>
    <g id="text_13">
     <!-- $P(Q&lt;Q_0 | P)$ -->
     <defs>
      <path d="M 16.890625 72.90625 
L 39.703125 72.90625 
Q 49.65625 72.90625 54.875 68.265625 
Q 60.109375 63.625 60.109375 54.6875 
Q 60.109375 42.671875 52.390625 35.984375 
Q 44.671875 29.296875 30.71875 29.296875 
L 18.3125 29.296875 
L 12.59375 0 
L 2.6875 0 
z
M 25.203125 64.796875 
L 19.921875 37.40625 
L 32.328125 37.40625 
Q 40.71875 37.40625 45.203125 41.703125 
Q 49.703125 46 49.703125 54 
Q 49.703125 59.125 46.65625 61.953125 
Q 43.609375 64.796875 38.09375 64.796875 
z
" id="DejaVuSans-Oblique-50"/>
      <path d="M 31 75.875 
Q 24.46875 64.65625 21.28125 53.65625 
Q 18.109375 42.671875 18.109375 31.390625 
Q 18.109375 20.125 21.3125 9.0625 
Q 24.515625 -2 31 -13.1875 
L 23.1875 -13.1875 
Q 15.875 -1.703125 12.234375 9.375 
Q 8.59375 20.453125 8.59375 31.390625 
Q 8.59375 42.28125 12.203125 53.3125 
Q 15.828125 64.359375 23.1875 75.875 
z
" id="DejaVuSans-28"/>
      <path d="M 36.078125 -1.3125 
Q 35.546875 -1.375 34.953125 -1.390625 
Q 34.375 -1.421875 33.203125 -1.421875 
Q 19.53125 -1.421875 11.8125 6.421875 
Q 4.109375 14.265625 4.109375 28.078125 
Q 4.109375 36.234375 7.0625 44.4375 
Q 10.015625 52.640625 15.28125 59.1875 
Q 21.390625 66.703125 29.03125 70.453125 
Q 36.671875 74.21875 45.90625 74.21875 
Q 59.28125 74.21875 66.984375 66.328125 
Q 74.703125 58.453125 74.703125 44.828125 
Q 74.703125 30.125 66.640625 17.921875 
Q 58.59375 5.71875 45.609375 0.6875 
L 55.515625 -12.890625 
L 44.484375 -12.890625 
z
M 45.609375 66.21875 
Q 37.5 66.21875 31.296875 62.28125 
Q 25.09375 58.34375 20.515625 50.296875 
Q 17.578125 45.171875 16.03125 39.40625 
Q 14.5 33.640625 14.5 27.78125 
Q 14.5 17.625 19.359375 12.109375 
Q 24.21875 6.59375 33.109375 6.59375 
Q 41.109375 6.59375 47.375 10.5625 
Q 53.65625 14.546875 58.109375 22.40625 
Q 61.078125 27.6875 62.640625 33.46875 
Q 64.203125 39.265625 64.203125 45.015625 
Q 64.203125 55.125 59.3125 60.671875 
Q 54.4375 66.21875 45.609375 66.21875 
z
" id="DejaVuSans-Oblique-51"/>
      <path d="M 73.1875 49.21875 
L 22.796875 31.296875 
L 73.1875 13.484375 
L 73.1875 4.59375 
L 10.59375 27.296875 
L 10.59375 35.40625 
L 73.1875 58.109375 
z
" id="DejaVuSans-3c"/>
      <path d="M 21 76.421875 
L 21 -23.578125 
L 12.703125 -23.578125 
L 12.703125 76.421875 
z
" id="DejaVuSans-7c"/>
      <path d="M 8.015625 75.875 
L 15.828125 75.875 
Q 23.140625 64.359375 26.78125 53.3125 
Q 30.421875 42.28125 30.421875 31.390625 
Q 30.421875 20.453125 26.78125 9.375 
Q 23.140625 -1.703125 15.828125 -13.1875 
L 8.015625 -13.1875 
Q 14.5 -2 17.703125 9.0625 
Q 20.90625 20.125 20.90625 31.390625 
Q 20.90625 42.671875 17.703125 53.65625 
Q 14.5 64.65625 8.015625 75.875 
z
" id="DejaVuSans-29"/>
     </defs>
     <g transform="translate(24.696875 171.28)rotate(-90)scale(0.1 -0.1)">
      <use transform="translate(0 0.578125)" xlink:href="#DejaVuSans-Oblique-50"/>
      <use transform="translate(60.302734 0.578125)" xlink:href="#DejaVuSans-28"/>
      <use transform="translate(99.316406 0.578125)" xlink:href="#DejaVuSans-Oblique-51"/>
      <use transform="translate(197.509766 0.578125)" xlink:href="#DejaVuSans-3c"/>
      <use transform="translate(300.78125 0.578125)" xlink:href="#DejaVuSans-Oblique-51"/>
      <use transform="translate(379.492188 -15.828125)scale(0.7)" xlink:href="#DejaVuSans-30"/>
      <use transform="translate(426.762695 0.578125)" xlink:href="#DejaVuSans-7c"/>
      <use transform="translate(460.454102 0.578125)" xlink:href="#DejaVuSans-Oblique-50"/>
      <use transform="translate(520.756836 0.578125)" xlink:href="#DejaVuSans-29"/>
     </g>
    </g>
   </g>
   <g id="line2d_12">
    <path clip-path="url(#p3ae68bea6a)" d="M 70.74 179.919416 
L 104.22 179.919416 
L 104.22 90.749167 
L 70.74 90.749167 
L 70.74 179.919416 
" style="fill:none;stroke:#000000;stroke-linecap:square;"/>
   </g>
   <g id="line2d_13">
    <path clip-path="url(#p3ae68bea6a)" d="M 87.48 179.919416 
L 87.48 242.116364 
" style="fill:none;stroke:#000000;stroke-linecap:square;"/>
   </g>
   <g id="line2d_14">
    <path clip-path="url(#p3ae68bea6a)" d="M 87.48 90.749167 
L 87.48 44.443636 
" style="fill:none;stroke:#000000;stroke-linecap:square;"/>
   </g>
   <g id="line2d_15">
    <path clip-path="url(#p3ae68bea6a)" d="M 79.11 242.116364 
L 95.85 242.116364 
" style="fill:none;stroke:#000000;stroke-linecap:square;"/>
   </g>
   <g id="line2d_16">
    <path clip-path="url(#p3ae68bea6a)" d="M 79.11 44.443636 
L 95.85 44.443636 
" style="fill:none;stroke:#000000;stroke-linecap:square;"/>
   </g>
   <g id="line2d_17"/>
   <g id="line2d_18">
    <path clip-path="url(#p3ae68bea6a)" d="M 137.7 108.921377 
L 171.18 108.921377 
L 171.18 67.693776 
L 137.7 67.693776 
L 137.7 108.921377 
" style="fill:none;stroke:#000000;stroke-linecap:square;"/>
   </g>
   <g id="line2d_19">
    <path clip-path="url(#p3ae68bea6a)" d="M 154.44 108.921377 
L 154.44 169.674461 
" style="fill:none;stroke:#000000;stroke-linecap:square;"/>
   </g>
   <g id="line2d_20">
    <path clip-path="url(#p3ae68bea6a)" d="M 154.44 67.693776 
L 154.44 45.252735 
" style="fill:none;stroke:#000000;stroke-linecap:square;"/>
   </g>
   <g id="line2d_21">
    <path clip-path="url(#p3ae68bea6a)" d="M 146.07 169.674461 
L 162.81 169.674461 
" style="fill:none;stroke:#000000;stroke-linecap:square;"/>
   </g>
   <g id="line2d_22">
    <path clip-path="url(#p3ae68bea6a)" d="M 146.07 45.252735 
L 162.81 45.252735 
" style="fill:none;stroke:#000000;stroke-linecap:square;"/>
   </g>
   <g id="line2d_23">
    <defs>
     <path d="M 0 3 
C 0.795609 3 1.55874 2.683901 2.12132 2.12132 
C 2.683901 1.55874 3 0.795609 3 0 
C 3 -0.795609 2.683901 -1.55874 2.12132 -2.12132 
C 1.55874 -2.683901 0.795609 -3 0 -3 
C -0.795609 -3 -1.55874 -2.683901 -2.12132 -2.12132 
C -2.683901 -1.55874 -3 -0.795609 -3 0 
C -3 0.795609 -2.683901 1.55874 -2.12132 2.12132 
C -1.55874 2.683901 -0.795609 3 0 3 
z
" id="m508b43ec1a" style="stroke:#000000;"/>
    </defs>
    <g clip-path="url(#p3ae68bea6a)">
     <use style="fill:none;stroke:#000000;" x="154.44" xlink:href="#m508b43ec1a" y="180.728223"/>
     <use style="fill:none;stroke:#000000;" x="154.44" xlink:href="#m508b43ec1a" y="182.017516"/>
     <use style="fill:none;stroke:#000000;" x="154.44" xlink:href="#m508b43ec1a" y="191.691987"/>
     <use style="fill:none;stroke:#000000;" x="154.44" xlink:href="#m508b43ec1a" y="182.675901"/>
     <use style="fill:none;stroke:#000000;" x="154.44" xlink:href="#m508b43ec1a" y="176.599994"/>
     <use style="fill:none;stroke:#000000;" x="154.44" xlink:href="#m508b43ec1a" y="176.590689"/>
     <use style="fill:none;stroke:#000000;" x="154.44" xlink:href="#m508b43ec1a" y="175.495363"/>
     <use style="fill:none;stroke:#000000;" x="154.44" xlink:href="#m508b43ec1a" y="200.739152"/>
     <use style="fill:none;stroke:#000000;" x="154.44" xlink:href="#m508b43ec1a" y="182.87144"/>
     <use style="fill:none;stroke:#000000;" x="154.44" xlink:href="#m508b43ec1a" y="188.668951"/>
     <use style="fill:none;stroke:#000000;" x="154.44" xlink:href="#m508b43ec1a" y="183.879606"/>
     <use style="fill:none;stroke:#000000;" x="154.44" xlink:href="#m508b43ec1a" y="172.222349"/>
     <use style="fill:none;stroke:#000000;" x="154.44" xlink:href="#m508b43ec1a" y="208.798046"/>
     <use style="fill:none;stroke:#000000;" x="154.44" xlink:href="#m508b43ec1a" y="175.398725"/>
    </g>
   </g>
   <g id="line2d_24">
    <path clip-path="url(#p3ae68bea6a)" d="M 204.66 228.602836 
L 238.14 228.602836 
L 238.14 203.449533 
L 204.66 203.449533 
L 204.66 228.602836 
" style="fill:none;stroke:#000000;stroke-linecap:square;"/>
   </g>
   <g id="line2d_25">
    <path clip-path="url(#p3ae68bea6a)" d="M 221.4 228.602836 
L 221.4 241.97909 
" style="fill:none;stroke:#000000;stroke-linecap:square;"/>
   </g>
   <g id="line2d_26">
    <path clip-path="url(#p3ae68bea6a)" d="M 221.4 203.449533 
L 221.4 165.866104 
" style="fill:none;stroke:#000000;stroke-linecap:square;"/>
   </g>
   <g id="line2d_27">
    <path clip-path="url(#p3ae68bea6a)" d="M 213.03 241.97909 
L 229.77 241.97909 
" style="fill:none;stroke:#000000;stroke-linecap:square;"/>
   </g>
   <g id="line2d_28">
    <path clip-path="url(#p3ae68bea6a)" d="M 213.03 165.866104 
L 229.77 165.866104 
" style="fill:none;stroke:#000000;stroke-linecap:square;"/>
   </g>
   <g id="line2d_29">
    <g clip-path="url(#p3ae68bea6a)">
     <use style="fill:none;stroke:#000000;" x="221.4" xlink:href="#m508b43ec1a" y="164.212192"/>
     <use style="fill:none;stroke:#000000;" x="221.4" xlink:href="#m508b43ec1a" y="164.923142"/>
     <use style="fill:none;stroke:#000000;" x="221.4" xlink:href="#m508b43ec1a" y="144.488804"/>
     <use style="fill:none;stroke:#000000;" x="221.4" xlink:href="#m508b43ec1a" y="159.414551"/>
     <use style="fill:none;stroke:#000000;" x="221.4" xlink:href="#m508b43ec1a" y="163.963772"/>
     <use style="fill:none;stroke:#000000;" x="221.4" xlink:href="#m508b43ec1a" y="162.708089"/>
     <use style="fill:none;stroke:#000000;" x="221.4" xlink:href="#m508b43ec1a" y="160.05686"/>
     <use style="fill:none;stroke:#000000;" x="221.4" xlink:href="#m508b43ec1a" y="139.758701"/>
     <use style="fill:none;stroke:#000000;" x="221.4" xlink:href="#m508b43ec1a" y="155.6831"/>
     <use style="fill:none;stroke:#000000;" x="221.4" xlink:href="#m508b43ec1a" y="161.662618"/>
     <use style="fill:none;stroke:#000000;" x="221.4" xlink:href="#m508b43ec1a" y="156.001186"/>
     <use style="fill:none;stroke:#000000;" x="221.4" xlink:href="#m508b43ec1a" y="163.055954"/>
     <use style="fill:none;stroke:#000000;" x="221.4" xlink:href="#m508b43ec1a" y="144.615574"/>
     <use style="fill:none;stroke:#000000;" x="221.4" xlink:href="#m508b43ec1a" y="153.87978"/>
     <use style="fill:none;stroke:#000000;" x="221.4" xlink:href="#m508b43ec1a" y="126.841555"/>
     <use style="fill:none;stroke:#000000;" x="221.4" xlink:href="#m508b43ec1a" y="158.350318"/>
     <use style="fill:none;stroke:#000000;" x="221.4" xlink:href="#m508b43ec1a" y="141.915775"/>
     <use style="fill:none;stroke:#000000;" x="221.4" xlink:href="#m508b43ec1a" y="155.597765"/>
     <use style="fill:none;stroke:#000000;" x="221.4" xlink:href="#m508b43ec1a" y="157.101716"/>
     <use style="fill:none;stroke:#000000;" x="221.4" xlink:href="#m508b43ec1a" y="160.94923"/>
     <use style="fill:none;stroke:#000000;" x="221.4" xlink:href="#m508b43ec1a" y="164.454725"/>
     <use style="fill:none;stroke:#000000;" x="221.4" xlink:href="#m508b43ec1a" y="160.501095"/>
     <use style="fill:none;stroke:#000000;" x="221.4" xlink:href="#m508b43ec1a" y="159.705125"/>
     <use style="fill:none;stroke:#000000;" x="221.4" xlink:href="#m508b43ec1a" y="156.192208"/>
     <use style="fill:none;stroke:#000000;" x="221.4" xlink:href="#m508b43ec1a" y="156.782124"/>
     <use style="fill:none;stroke:#000000;" x="221.4" xlink:href="#m508b43ec1a" y="161.408575"/>
     <use style="fill:none;stroke:#000000;" x="221.4" xlink:href="#m508b43ec1a" y="157.461282"/>
     <use style="fill:none;stroke:#000000;" x="221.4" xlink:href="#m508b43ec1a" y="161.606147"/>
     <use style="fill:none;stroke:#000000;" x="221.4" xlink:href="#m508b43ec1a" y="161.606147"/>
     <use style="fill:none;stroke:#000000;" x="221.4" xlink:href="#m508b43ec1a" y="137.437978"/>
     <use style="fill:none;stroke:#000000;" x="221.4" xlink:href="#m508b43ec1a" y="148.76302"/>
     <use style="fill:none;stroke:#000000;" x="221.4" xlink:href="#m508b43ec1a" y="163.873832"/>
     <use style="fill:none;stroke:#000000;" x="221.4" xlink:href="#m508b43ec1a" y="164.866433"/>
     <use style="fill:none;stroke:#000000;" x="221.4" xlink:href="#m508b43ec1a" y="155.937903"/>
     <use style="fill:none;stroke:#000000;" x="221.4" xlink:href="#m508b43ec1a" y="130.340937"/>
     <use style="fill:none;stroke:#000000;" x="221.4" xlink:href="#m508b43ec1a" y="144.940483"/>
     <use style="fill:none;stroke:#000000;" x="221.4" xlink:href="#m508b43ec1a" y="165.439228"/>
     <use style="fill:none;stroke:#000000;" x="221.4" xlink:href="#m508b43ec1a" y="146.40758"/>
     <use style="fill:none;stroke:#000000;" x="221.4" xlink:href="#m508b43ec1a" y="164.491541"/>
     <use style="fill:none;stroke:#000000;" x="221.4" xlink:href="#m508b43ec1a" y="161.07048"/>
     <use style="fill:none;stroke:#000000;" x="221.4" xlink:href="#m508b43ec1a" y="153.051643"/>
     <use style="fill:none;stroke:#000000;" x="221.4" xlink:href="#m508b43ec1a" y="164.871173"/>
     <use style="fill:none;stroke:#000000;" x="221.4" xlink:href="#m508b43ec1a" y="154.312775"/>
     <use style="fill:none;stroke:#000000;" x="221.4" xlink:href="#m508b43ec1a" y="147.666219"/>
     <use style="fill:none;stroke:#000000;" x="221.4" xlink:href="#m508b43ec1a" y="154.557349"/>
     <use style="fill:none;stroke:#000000;" x="221.4" xlink:href="#m508b43ec1a" y="157.117902"/>
     <use style="fill:none;stroke:#000000;" x="221.4" xlink:href="#m508b43ec1a" y="164.203947"/>
     <use style="fill:none;stroke:#000000;" x="221.4" xlink:href="#m508b43ec1a" y="132.482896"/>
     <use style="fill:none;stroke:#000000;" x="221.4" xlink:href="#m508b43ec1a" y="158.845827"/>
     <use style="fill:none;stroke:#000000;" x="221.4" xlink:href="#m508b43ec1a" y="147.742592"/>
     <use style="fill:none;stroke:#000000;" x="221.4" xlink:href="#m508b43ec1a" y="155.755378"/>
     <use style="fill:none;stroke:#000000;" x="221.4" xlink:href="#m508b43ec1a" y="165.171743"/>
     <use style="fill:none;stroke:#000000;" x="221.4" xlink:href="#m508b43ec1a" y="147.619108"/>
     <use style="fill:none;stroke:#000000;" x="221.4" xlink:href="#m508b43ec1a" y="164.406569"/>
     <use style="fill:none;stroke:#000000;" x="221.4" xlink:href="#m508b43ec1a" y="158.675516"/>
     <use style="fill:none;stroke:#000000;" x="221.4" xlink:href="#m508b43ec1a" y="145.250478"/>
    </g>
   </g>
   <g id="line2d_30">
    <path clip-path="url(#p3ae68bea6a)" d="M 271.62 165.874326 
L 305.1 165.874326 
L 305.1 106.687447 
L 271.62 106.687447 
L 271.62 165.874326 
" style="fill:none;stroke:#000000;stroke-linecap:square;"/>
   </g>
   <g id="line2d_31">
    <path clip-path="url(#p3ae68bea6a)" d="M 288.36 165.874326 
L 288.36 232.138554 
" style="fill:none;stroke:#000000;stroke-linecap:square;"/>
   </g>
   <g id="line2d_32">
    <path clip-path="url(#p3ae68bea6a)" d="M 288.36 106.687447 
L 288.36 52.381671 
" style="fill:none;stroke:#000000;stroke-linecap:square;"/>
   </g>
   <g id="line2d_33">
    <path clip-path="url(#p3ae68bea6a)" d="M 279.99 232.138554 
L 296.73 232.138554 
" style="fill:none;stroke:#000000;stroke-linecap:square;"/>
   </g>
   <g id="line2d_34">
    <path clip-path="url(#p3ae68bea6a)" d="M 279.99 52.381671 
L 296.73 52.381671 
" style="fill:none;stroke:#000000;stroke-linecap:square;"/>
   </g>
   <g id="line2d_35"/>
   <g id="line2d_36">
    <path clip-path="url(#p3ae68bea6a)" d="M 338.58 118.590692 
L 372.06 118.590692 
L 372.06 63.732029 
L 338.58 63.732029 
L 338.58 118.590692 
" style="fill:none;stroke:#000000;stroke-linecap:square;"/>
   </g>
   <g id="line2d_37">
    <path clip-path="url(#p3ae68bea6a)" d="M 355.32 118.590692 
L 355.32 198.866372 
" style="fill:none;stroke:#000000;stroke-linecap:square;"/>
   </g>
   <g id="line2d_38">
    <path clip-path="url(#p3ae68bea6a)" d="M 355.32 63.732029 
L 355.32 44.726835 
" style="fill:none;stroke:#000000;stroke-linecap:square;"/>
   </g>
   <g id="line2d_39">
    <path clip-path="url(#p3ae68bea6a)" d="M 346.95 198.866372 
L 363.69 198.866372 
" style="fill:none;stroke:#000000;stroke-linecap:square;"/>
   </g>
   <g id="line2d_40">
    <path clip-path="url(#p3ae68bea6a)" d="M 346.95 44.726835 
L 363.69 44.726835 
" style="fill:none;stroke:#000000;stroke-linecap:square;"/>
   </g>
   <g id="line2d_41">
    <g clip-path="url(#p3ae68bea6a)">
     <use style="fill:none;stroke:#000000;" x="355.32" xlink:href="#m508b43ec1a" y="210.842958"/>
     <use style="fill:none;stroke:#000000;" x="355.32" xlink:href="#m508b43ec1a" y="205.870783"/>
     <use style="fill:none;stroke:#000000;" x="355.32" xlink:href="#m508b43ec1a" y="213.294537"/>
     <use style="fill:none;stroke:#000000;" x="355.32" xlink:href="#m508b43ec1a" y="205.845159"/>
     <use style="fill:none;stroke:#000000;" x="355.32" xlink:href="#m508b43ec1a" y="206.85247"/>
     <use style="fill:none;stroke:#000000;" x="355.32" xlink:href="#m508b43ec1a" y="206.118222"/>
     <use style="fill:none;stroke:#000000;" x="355.32" xlink:href="#m508b43ec1a" y="202.997329"/>
     <use style="fill:none;stroke:#000000;" x="355.32" xlink:href="#m508b43ec1a" y="205.211293"/>
     <use style="fill:none;stroke:#000000;" x="355.32" xlink:href="#m508b43ec1a" y="211.368679"/>
     <use style="fill:none;stroke:#000000;" x="355.32" xlink:href="#m508b43ec1a" y="202.477044"/>
     <use style="fill:none;stroke:#000000;" x="355.32" xlink:href="#m508b43ec1a" y="212.133092"/>
     <use style="fill:none;stroke:#000000;" x="355.32" xlink:href="#m508b43ec1a" y="207.887251"/>
     <use style="fill:none;stroke:#000000;" x="355.32" xlink:href="#m508b43ec1a" y="204.134941"/>
    </g>
   </g>
   <g id="line2d_42">
    <path clip-path="url(#p3ae68bea6a)" d="M 70.74 132.636559 
L 104.22 132.636559 
" style="fill:none;stroke:#ff7f0e;stroke-linecap:square;"/>
   </g>
   <g id="line2d_43">
    <path clip-path="url(#p3ae68bea6a)" d="M 137.7 85.23158 
L 171.18 85.23158 
" style="fill:none;stroke:#ff7f0e;stroke-linecap:square;"/>
   </g>
   <g id="line2d_44">
    <path clip-path="url(#p3ae68bea6a)" d="M 204.66 218.219906 
L 238.14 218.219906 
" style="fill:none;stroke:#ff7f0e;stroke-linecap:square;"/>
   </g>
   <g id="line2d_45">
    <path clip-path="url(#p3ae68bea6a)" d="M 271.62 137.106696 
L 305.1 137.106696 
" style="fill:none;stroke:#ff7f0e;stroke-linecap:square;"/>
   </g>
   <g id="line2d_46">
    <path clip-path="url(#p3ae68bea6a)" d="M 338.58 87.484278 
L 372.06 87.484278 
" style="fill:none;stroke:#ff7f0e;stroke-linecap:square;"/>
   </g>
   <g id="patch_3">
    <path d="M 54 252 
L 54 34.56 
" style="fill:none;stroke:#000000;stroke-linecap:square;stroke-linejoin:miter;stroke-width:0.8;"/>
   </g>
   <g id="patch_4">
    <path d="M 388.8 252 
L 388.8 34.56 
" style="fill:none;stroke:#000000;stroke-linecap:square;stroke-linejoin:miter;stroke-width:0.8;"/>
   </g>
   <g id="patch_5">
    <path d="M 54 252 
L 388.8 252 
" style="fill:none;stroke:#000000;stroke-linecap:square;stroke-linejoin:miter;stroke-width:0.8;"/>
   </g>
   <g id="patch_6">
    <path d="M 54 34.56 
L 388.8 34.56 
" style="fill:none;stroke:#000000;stroke-linecap:square;stroke-linejoin:miter;stroke-width:0.8;"/>
   </g>
  </g>
 </g>
 <defs>
  <clipPath id="p3ae68bea6a">
   <rect height="217.44" width="334.8" x="54" y="34.56"/>
  </clipPath>
 </defs>
</svg>
